<?xml version="1.0" encoding="UTF-8"?>
<!--Generator: Apple Native CoreSVG 341-->
<!DOCTYPE svg
PUBLIC "-//W3C//DTD SVG 1.1//EN"
       "http://www.w3.org/Graphics/SVG/1.1/DTD/svg11.dtd">
<svg version="1.1" xmlns="http://www.w3.org/2000/svg" xmlns:xlink="http://www.w3.org/1999/xlink" viewBox="0 0 1024 1024">
 <g/>
 <g id="low_cog">
  <path d="M763.354 572.759c-0.492004-1.97168-1.46417-3.77032-2.85767-5.26685c-1.02765-1.1203-2.27124-2.04944-3.77374-2.86096c-1.10773-0.582825-2.0509-0.96698-4.34973-1.89612c-3.966-1.58777-7.92682-3.19482-11.8928-4.78253c-2.37354-0.959351-3.62543-1.46655-4.97174-2.16431c-1.75842-0.899902-3.18268-1.92865-4.39789-3.16064c-3.2702-3.31738-4.83972-8.05695-4.2384-12.7909c0.603333-4.70227 3.30768-8.90027 7.32367-11.2924c1.487-0.889099 3.13293-1.51898 5.06018-1.96051c1.5061-0.335877 2.78912-0.492798 5.35999-0.82605c4.24036-0.543091 8.48065-1.08624 12.721-1.62927c2.46143-0.310547 3.47003-0.447022 4.68427-0.735901c1.65485-0.389648 3.0943-0.981018 4.37653-1.80023c1.71808-1.09692 3.11639-2.58887 4.09424-4.36792c0.96814-1.78168 1.47595-3.77832 1.46509-5.80872c-0.0037231-2.01822-0.519531-4.01682-1.49927-5.78653c-0.989563-1.77228-2.39532-3.26157-4.11475-4.34778c-1.15436-0.71933-2.42761-1.26328-3.86804-1.64453c-0.705689-0.186829-1.38306-0.324738-2.10919-0.434204c-0.803528-0.129883-1.97559-0.274658-3.10895-0.409119c-4.2403-0.512085-8.47803-1.03378-12.728-1.54846c-2.53546-0.309021-3.87964-0.468262-5.35474-0.796661c-1.88623-0.416504-3.54675-1.02161-5.06738-1.92062c-4.02075-2.35742-6.76489-6.52863-7.40814-11.2506c-0.627075-4.66592 0.862549-9.43369 4.15717-12.8133c1.20813-1.24228 2.61951-2.27554 4.37396-3.19739c1.34375-0.699493 2.59766-1.21588 4.96393-2.18259c3.95685-1.62161 7.90387-3.24573 11.8607-4.86734c2.29797-0.943451 3.23718-1.32587 4.33704-1.92441c1.49817-0.813782 2.74097-1.7572 3.76056-2.87354c1.38153-1.50674 2.34521-3.31024 2.82593-5.28296c0.478332-1.96304 0.443603-4.02051-0.0824585-5.98044c-0.526001-1.95993-1.55157-3.75211-2.95532-5.2099c-1.40375-1.45776-3.14771-2.52972-5.0993-3.12903c-1.47089-0.461792-3.01599-0.643219-4.70752-0.584076c-1.24261 0.0435486-2.2511 0.179993-4.70355 0.534302c-4.2337 0.596558-8.46741 1.19318-12.7012 1.78967c-2.52771 0.365418-3.8692 0.548248-5.37909 0.624481c-1.96844 0.0892639-3.72223-0.0852966-5.38959-0.547333c-4.49213-1.24078-8.22809-4.55728-10.0644-8.9537c-1.82458-4.36227-1.60052-9.35123 0.694824-13.4505c0.843079-1.50439 1.95111-2.87659 3.40314-4.21988c1.10809-1.02042 2.18439-1.84244 4.21906-3.39352c3.40491-2.58493 6.80273-5.18207 10.2076-7.76697c1.97101-1.50589 2.77509-2.12061 3.68445-2.97644c1.24359-1.18115 2.19934-2.4075 2.89703-3.75385c0.934692-1.81119 1.39862-3.79871 1.35876-5.83685c-0.0545654-2.02133-0.61676-4.00119-1.63074-5.75925c-1.60638-2.76315-4.25183-4.76678-7.30688-5.57547c-2.02039-0.53479-3.94708-0.486206-5.66901-0.155762c-0.992371 0.192474-1.88409 0.473694-2.66168 0.754028c-0.916748 0.336639-1.86108 0.738403-3.41028 1.39389c-3.93103 1.68015-7.85938 3.35062-11.7974 5.01855c-2.34497 1.00345-3.59424 1.54169-5.039 1.99719c-1.88574 0.597382-3.61664 0.884064-5.35089 0.869842c-4.68842-0.0307007-9.13489-2.30423-12.0354-6.04095c-2.91223-3.77084-3.94611-8.65829-2.80188-13.1761c0.42334-1.67755 1.13928-3.28802 2.19073-4.95453c0.820801-1.30341 1.61841-2.3233 3.19672-4.37793c2.62018-3.37195 5.23328-6.75613 7.84619-10.1403c1.51404-1.96823 2.13885-2.76492 2.79382-3.83289c0.885742-1.43109 1.49512-2.87323 1.81903-4.37021c0.444641-1.99268 0.375854-4.03845-0.194031-5.98932c-0.572327-1.94113-1.62488-3.70941-3.06793-5.1362c-1.43079-1.43387-3.21387-2.47485-5.15643-3.03043c-1.94977-0.56781-3.99384-0.622681-5.98682-0.16745c-1.47449 0.333832-2.90924 0.947174-4.35767 1.84653c-1.06427 0.659637-1.86127 1.28659-3.81805 2.81696c-3.36688 2.63632-6.73108 5.26309-10.0978 7.89944c-2.01086 1.57803-3.08002 2.41229-4.3526 3.23407c-1.66901 1.06857-3.26538 1.78391-4.94269 2.21927c-4.56689 1.1911-9.4472 0.126892-13.1824-2.72388c-3.79749-2.88794-6.06488-7.33643-6.12433-11.997c-0.0289917-1.7663 0.256958-3.51123 0.835266-5.34439c0.452148-1.47339 0.965881-2.67188 1.95941-5.05716c1.64313-3.94095 3.29846-7.88895 4.95142-11.8273c0.426392-1.02509 0.908081-2.18033 1.185-2.91391c0.261658-0.675568 0.479492-1.34207 0.663757-2.03809c0.381226-1.44046 0.540955-2.82574 0.484375-4.17526c-0.0906982-2.0412-0.689514-3.99966-1.74268-5.72675c-1.05322-1.72708-2.52515-3.16156-4.28442-4.17548c-1.76172-1.00427-3.74817-1.55072-5.77545-1.59082s-4.01569 0.437042-5.82153 1.39694c-1.34375 0.699493-2.5697 1.65771-3.73926 2.91022c-0.851868 0.912476-1.45978 1.72397-2.95697 3.70694c-2.56024 3.41882-5.1275 6.82547-7.69727 10.2418c-1.54419 2.04297-2.35004 3.13312-3.36957 4.24942c-1.33997 1.466-2.69897 2.5752-4.19769 3.43024c-4.07538 2.30402-9.06146 2.57727-13.4492 0.784851c-4.40179-1.81689-7.75391-5.52829-9.0188-10.0114c-0.472168-1.65604-0.661438-3.40262-0.58075-5.38815c0.0648804-1.53458 0.249939-2.8201 0.58606-5.37939c0.575195-4.24429 1.14777-8.47891 1.7204-12.7135c0.329773-2.45755 0.47229-3.4646 0.501526-4.70859c0.050354-1.71423-0.15155-3.25732-0.607056-4.70215c-0.611023-1.95135-1.69324-3.686-3.16589-5.07922c-1.46033-1.40045-3.26331-2.40515-5.21606-2.92206c-1.96252-0.51947-4.02649-0.53833-5.9859-0.0534363c-1.97156 0.491882-3.77026 1.46393-5.26678 2.85745c-1.1106 1.03024-2.04944 2.27139-2.85126 3.77637c-0.592468 1.10526-0.976685 2.04831-1.89618 4.34979c-1.59741 3.96335-3.19482 7.9267-4.79205 11.8901c-0.959412 2.37366-1.46661 3.62558-2.15479 4.97449c-0.909485 1.7558-1.93835 3.18002-3.17023 4.39529c-3.31744 3.27017-8.05701 4.83972-12.7812 4.24094c-4.71198-0.605865-8.90997-3.31015-11.2996-7.33582c-0.891663-1.47742-1.52148-3.12344-1.95337-5.0481c-0.34552-1.5087-0.499939-2.8013-0.82605-5.35999c-0.552734-4.24289-1.09595-8.48322-1.63892-12.7234c-0.31311-2.45187-0.437439-3.4675-0.726257-4.68192c-0.399292-1.65741-0.990662-3.09668-1.80981-4.37906c-1.09698-1.7179-2.58893-3.1163-4.36804-4.09412c-1.78162-0.968124-3.77826-1.47598-5.79901-1.46257c-2.02783 0.0011139-4.02649 0.516907-5.79614 1.49678c-1.77234 0.989441-3.26166 2.39526-4.35046 4.12424c-0.716705 1.14481-1.26059 2.41809-1.64188 3.85852c-0.186798 0.705719-0.324768 1.38297-0.434296 2.10919c-0.129852 0.803558-0.264984 1.97812-0.408997 3.10898c-0.512207 4.24023-1.03644 8.48767-1.54855 12.728c-0.309051 2.5354-0.468231 3.87949-0.796692 5.35455c-0.406799 1.88892-1.02155 3.54684-1.92059 5.06747c-2.35739 4.02081-6.52856 6.76501-11.2505 7.4082c-4.66592 0.626984-9.43365-0.86264-12.8134-4.15726c-1.2326-1.20557-2.27542-2.61951-3.19733-4.3739c-0.699524-1.34378-1.21582-2.59769-2.18262-4.96393c-1.62152-3.95682-3.24576-7.90396-4.86731-11.8608c-0.943451-2.29797-1.32587-3.23715-1.91483-4.33438c-0.81369-1.4982-1.76678-2.74356-2.88318-3.76321c-1.50665-1.38156-3.31018-2.34515-5.27325-2.82339c-1.97266-0.480804-4.03009-0.446106-5.99002 0.0799255c-1.95026 0.528595-3.7522 1.55164-5.2099 2.95541c-1.45782 1.40381-2.52972 3.14761-3.12906 5.09937c-0.452148 1.47339-0.64325 3.01587-0.584106 4.70737c0.0436096 1.24258 0.189667 2.25366 0.534271 4.70352c0.596588 4.23376 1.19318 8.46756 1.78964 12.7013c0.365387 2.52771 0.557922 3.87177 0.624542 5.37906c0.0892639 1.96844-0.0852966 3.72223-0.547333 5.38956c-1.2312 4.49481-4.55734 8.22818-8.95377 10.0644c-4.36227 1.82462-9.35114 1.60062-13.4505-0.694824c-1.50433-0.843018-2.86697-1.94855-4.21011-3.40063c-1.03018-1.11063-1.85226-2.18686-3.40335-4.2215c-2.58481-3.40491-5.18207-6.80273-7.76688-10.2076c-1.50592-1.97104-2.12058-2.77512-2.9765-3.68448c-1.17142-1.24106-2.4075-2.19928-3.75381-2.89703c-1.81122-0.934601-3.79608-1.40829-5.82718-1.35626c-2.03107 0.0520325-4.01093 0.614166-5.75922 1.63068c-2.77286 1.60397-4.77658 4.24945-5.58521 7.30432c-0.534851 2.02054-0.486175 3.94717-0.146057 5.67169c0.192444 0.99231 0.463959 1.88144 0.744293 2.65909c0.336731 0.916717 0.738495 1.86099 1.39392 3.41034c1.68018 3.93094 3.35068 7.85931 5.02826 11.7999c0.993835 2.34238 1.53195 3.59171 1.98752 5.03641c0.597473 1.88571 0.884033 3.61679 0.869781 5.35092c-0.0306396 4.68842-2.30411 9.13489-6.04095 12.0354c-3.77075 2.91223-8.65817 3.94614-13.176 2.80197c-1.67767-0.423401-3.28815-1.13937-4.95453-2.19083c-1.30338-0.820831-2.32336-1.61841-4.36575-3.20386c-3.38412-2.61301-6.76837-5.22607-10.1526-7.83908c-1.96811-1.5141-2.76486-2.13876-3.83279-2.79388c-1.43115-0.885712-2.87326-1.495-4.37021-1.81882c-1.99265-0.444733-4.03842-0.375885-5.97968 0.196442c-1.95081 0.569824-3.71915 1.62247-5.14597 3.06549c-1.4241 1.43335-2.47479 3.21387-3.03027 5.15643c-0.558197 1.95227-0.622742 3.99377-0.167572 5.98666c0.333893 1.47461 0.944733 2.91907 1.84665 4.35776c0.659576 1.0643 1.28659 1.8613 2.81689 3.81808c2.63629 3.36673 5.27271 6.73355 7.89944 10.0978c1.57812 2.0108 2.41232 3.0799 3.23404 4.3526c1.06851 1.66901 1.784 3.26532 2.21933 4.94257c1.19104 4.56705 0.12677 9.44736-2.7142 13.185c-2.89761 3.7951-7.33646 6.06497-11.997 6.12442c-1.77591 0.0264587-3.5112-0.25705-5.35406-0.837921c-1.47345-0.452087-2.67188-0.965851-5.0571-1.95932c-3.93845-1.65283-7.88901-3.29855-11.8273-4.95142c-1.02502-0.426453-2.18027-0.908081-2.90421-1.1825c-0.687805-0.254456-1.35181-0.481934-2.04782-0.666168c-1.44043-0.381287-2.81604-0.538513-4.17523-0.484528c-2.03149 0.0932617-3.98999 0.692108-5.72675 1.74277c-1.72708 1.05313-3.16156 2.52518-4.16583 4.2869c-1.01398 1.75922-1.56036 3.74561-1.60046 5.77295c-0.030426 2.02985 0.437134 4.01566 1.39694 5.82144c0.699493 1.34375 1.66739 2.57239 2.91022 3.73929c0.912537 0.851898 1.72397 1.45981 3.70956 2.94745c3.41626 2.56979 6.83255 5.13959 10.2488 7.70941c2.03342 1.54166 3.12357 2.34747 4.23972 3.36707c1.46606 1.33978 2.57529 2.69891 3.43039 4.19766c2.31369 4.07791 2.57721 9.06146 0.78479 13.4491c-1.80722 4.40442-5.51862 7.75647-10.0017 9.02148c-1.66565 0.469482-3.41232 0.658844-5.38812 0.580689c-1.54422-0.0674438-2.82974-0.252502-5.3891-0.588592c-4.23462-0.572662-8.47891-1.14783-12.7135-1.72046c-2.45749-0.329834-3.46463-0.472259-4.70856-0.501495c-1.71433-0.0503235-3.25745 0.15152-4.70218 0.607025c-1.95139 0.611084-3.68604 1.69327-5.07922 3.16583c-1.40045 1.46036-2.40518 3.26337-2.92209 5.21622c-0.51947 1.96246-0.53833 4.02643-0.0437622 5.98837c0.482208 1.96899 1.45425 3.76773 2.84778 5.26413c1.03018 1.11063 2.27139 2.04953 3.78607 2.85394c1.09552 0.589966 2.0387 0.974091 4.34006 1.89362c3.96335 1.59738 7.92673 3.19473 11.8901 4.79214c2.37369 0.95929 3.62558 1.46658 4.97458 2.15469c1.75571 0.909546 3.17996 1.93829 4.39523 3.17032c3.27017 3.31732 4.83972 8.05688 4.24094 12.7811c-0.605896 4.71204-3.31012 8.91-7.32608 11.3021c-1.48715 0.88916-3.12354 1.52148-5.05789 1.9509c-1.50858 0.345459-2.79156 0.50238-5.35287 0.838257c-4.24738 0.530853-8.4902 1.08362-12.7305 1.62674c-2.45187 0.31311-3.45789 0.43985-4.67227 0.72876c-1.66708 0.396668-3.10635 0.988098-4.38873 1.80725c-1.71785 1.09702-3.11629 2.5889-4.08444 4.37061c-0.977799 1.77905-1.48572 3.77563-1.47231 5.79645c0.0011597 2.02789 0.516968 4.02649 1.50649 5.79877c0.979874 1.76965 2.38562 3.25903 4.11462 4.34772c1.14478 0.716858 2.41803 1.2608 3.85846 1.64209c0.705719 0.186768 1.38309 0.324646 2.10925 0.434082c0.803589 0.130005 1.97812 0.265015 3.10892 0.40918c4.2403 0.512024 8.48767 1.03638 12.7281 1.54846c2.53534 0.309021 3.87936 0.468262 5.3642 0.799194c1.87921 0.404297 3.5372 1.01904 5.06744 1.92072c4.01114 2.3548 6.75537 6.526 7.39853 11.248c0.626923 4.66589-0.862671 9.43372-4.1572 12.8134c-1.20557 1.2326-2.61966 2.27551-4.37396 3.19733c-1.34378 0.699463-2.59766 1.21588-4.96393 2.18262c-3.94714 1.62415-7.90402 3.24573-11.8607 4.86737c-2.29797 0.94342-3.23718 1.32587-4.33691 1.92438c-1.4957 0.804077-2.74106 1.7572-3.76074 2.87347c-1.38153 1.50671-2.34509 3.31024-2.8233 5.27338c-0.471222 1.97528-0.446136 4.03015 0.0797729 5.99005c0.5383 1.95282 1.55173 3.75214 2.95551 5.2099c1.40387 1.45776 3.14767 2.52972 5.0994 3.12915c1.47333 0.452026 3.02545 0.64563 4.70743 0.583923c1.24246-0.043457 2.25351-0.189697 4.71307-0.531738c4.22412-0.599121 8.45795-1.19562 12.6917-1.79224c2.52774-0.365356 3.87177-0.557861 5.37912-0.62439c1.96835-0.0893555 3.72211 0.0852661 5.39911 0.549805c4.49493 1.2312 8.21857 4.55481 10.0547 8.95117c1.82474 4.3623 1.60065 9.35126-0.694824 13.4505c-0.842987 1.50446-1.93875 2.86957-3.40057 4.21021c-1.11069 1.03015-2.18686 1.85217-4.2215 3.40326c-3.40491 2.5849-6.8027 5.18201-10.2076 7.76697c-1.97104 1.50586-2.77515 2.12054-3.68448 2.97644c-1.24115 1.17145-2.18967 2.41003-2.89703 3.75378c-0.93457 1.81134-1.39865 3.79877-1.35632 5.82721c0.052124 2.03101 0.614288 4.01086 1.63074 5.75922c1.61365 2.77539 4.24951 4.77661 7.30432 5.58521c2.0206 0.534851 3.94711 0.486145 5.67169 0.146118c0.99234-0.192505 1.88138-0.46405 2.65912-0.744446c0.9263-0.334106 1.86096-0.738403 3.41037-1.3938c3.93082-1.68018 7.85928-3.35065 11.7998-5.02826c2.34238-0.993774 3.59183-1.53204 5.03656-1.98755c1.88562-0.597412 3.61676-0.883972 5.35086-0.869812c4.69812 0.0332642 9.14447 2.30676 12.0353 6.04089c2.91223 3.77087 3.95575 8.66089 2.81168 13.1787c-0.433014 1.67505-1.14899 3.28546-2.20044 4.95203c-0.820953 1.30341-1.61853 2.3233-3.19431 4.36829c-2.61295 3.38416-5.23569 6.76581-7.84875 10.15c-1.51401 1.9682-2.13861 2.76489-2.79382 3.83289c-0.876007 1.43359-1.48529 2.87573-1.81876 4.37024c-0.444855 1.99261-0.375946 4.03845 0.196472 5.97961c0.569763 1.95074 1.62247 3.71906 3.06549 5.14587c1.43335 1.42426 3.21384 2.47485 5.15634 3.0304c1.94971 0.567871 3.9938 0.622681 5.98666 0.167419c1.47461-0.33374 2.91904-0.944519 4.36737-1.84393c1.05469-0.662231 1.86136-1.28662 3.80847-2.81946c3.36676-2.63641 6.73364-5.27277 10.0979-7.89954c2.01071-1.57806 3.0799-2.41229 4.3526-3.23401c1.66898-1.06854 3.26523-1.784 4.94254-2.2193c4.56711-1.19104 9.44745-0.126831 13.1946 2.7168c3.78552 2.89514 6.05536 7.3338 6.11484 11.9944c0.0264282 1.77594-0.257019 3.51129-0.828308 5.35657c-0.4617 1.47089-0.975555 2.66937-1.96899 5.05469c-1.6431 3.94092-3.29858 7.88892-4.94168 11.8298c-0.436218 1.02246-0.917786 2.17773-1.19226 2.90167c-0.254395 0.687805-0.481812 1.35175-0.666046 2.04785c-0.381287 1.44043-0.538574 2.81604-0.482086 4.16541c0.0908203 2.04132 0.689606 3.99982 1.74033 5.73657c1.05316 1.72699 2.53488 3.16406 4.2869 4.16577c1.75919 1.01385 3.74561 1.56042 5.77289 1.60046c2.02985 0.0303955 4.01569-0.437012 5.8215-1.39697c1.34366-0.699524 2.57233-1.66742 3.73917-2.91028c0.851959-0.912354 1.45987-1.72388 2.95721-3.70679c2.5697-3.41638 5.13962-6.8327 7.70941-10.249c1.53195-2.03583 2.34741-3.12347 3.36713-4.23975c1.33002-1.46863 2.68918-2.57782 4.19757-3.4303c4.06824-2.31622 9.05432-2.58948 13.4395-0.787354c4.414 1.80975 7.75635 5.51862 9.02148 10.0018c0.46933 1.66559 0.658844 3.41229 0.580597 5.38812c-0.0674133 1.54425-0.242828 2.83228-0.588501 5.38904c-0.572693 4.23456-1.14786 8.47888-1.72058 12.7134c-0.329773 2.45758-0.462555 3.46729-0.501465 4.70868c-0.0477295 1.70459 0.15155 3.25739 0.607025 4.70203c0.613678 1.94177 1.6933 3.68616 3.16589 5.07941c1.46039 1.40033 3.26337 2.40521 5.22589 2.92468c1.95273 0.516846 4.01672 0.535644 5.97864 0.0411377c1.96909-0.482239 3.76776-1.45435 5.26419-2.84796c1.11066-1.03009 2.0495-2.27124 2.85388-3.78589c0.590027-1.09558 0.97406-2.03876 1.90332-4.33759c1.59741-3.96338 3.18512-7.92926 4.78253-11.8926c0.95929-2.37366 1.46658-3.62561 2.16428-4.97192c0.909637-1.75574 1.92856-3.18262 3.16071-4.39783c3.31723-3.2702 8.05942-4.84943 12.7907-4.2384c4.70242 0.603394 8.90039 3.30762 11.2925 7.32361c0.88913 1.48706 1.52142 3.12335 1.96048 5.06024c0.335907 1.50616 0.492828 2.78906 0.828644 5.3504c0.54306 4.2403 1.08362 8.49023 1.62671 12.7306c0.31311 2.45178 0.449493 3.46033 0.738464 4.67468c0.387054 1.66455 0.988098 3.10638 1.79758 4.38623c1.09698 1.71796 2.58884 3.11621 4.37057 4.08447c1.77908 0.977783 3.77563 1.4856 5.80612 1.47479c2.01831-0.0037231 4.01685-0.519531 5.78918-1.50897c1.76965-0.979858 3.25897-2.38562 4.34766-4.11469c0.726502-1.14215 1.2608-2.41797 1.64209-3.8584c0.186829-0.70575 0.324707-1.38306 0.434082-2.10925c0.130005-0.803528 0.274658-1.97559 0.409241-3.10889c0.511963-4.24042 1.03632-8.48779 1.5484-12.7281c0.30896-2.53546 0.468262-3.87946 0.799133-5.36432c0.414062-1.87659 1.01917-3.53711 1.91821-5.05774c2.35992-4.03052 6.5285-6.76495 11.2505-7.40814c4.66595-0.627014 9.43384 0.86261 12.8134 4.15717c1.24225 1.20813 2.27563 2.61963 3.19745 4.3739c0.701904 1.33417 1.21582 2.59772 2.18512 4.95435c1.62158 3.95673 3.2431 7.91357 4.86481 11.8704c0.94342 2.29797 1.32587 3.23712 1.92438 4.33691c0.81366 1.49817 1.7572 2.74103 2.87347 3.76062c1.50677 1.38159 3.3103 2.34521 5.28308 2.82599c1.96564 0.468628 4.03015 0.446106 5.98041-0.0824585c1.96252-0.535706 3.75208-1.55164 5.20984-2.95544c1.45782-1.40375 2.52972-3.14764 3.12915-5.09924c0.46167-1.47089 0.645569-3.0257 0.583862-4.70752c-0.043396-1.24255-0.179993-2.2511-0.531677-4.71313c-0.59906-4.22406-1.19568-8.45782-1.79224-12.6916c-0.355713-2.52527-0.548218-3.86932-0.62439-5.37915c-0.086853-1.97809 0.0852661-3.72223 0.547302-5.38953c1.24329-4.50189 4.55725-8.22815 8.95367-10.0645c4.36224-1.82458 9.3512-1.60059 13.4504 0.694885c1.50458 0.843079 2.87921 1.94141 4.21991 3.40314c1.02051 1.10809 1.84247 2.18427 3.39355 4.21899c2.5849 3.40491 5.18207 6.80273 7.76697 10.2076c1.50592 1.97101 2.12061 2.77509 2.97644 3.68439c1.17151 1.24115 2.41016 2.1897 3.75391 2.89709c1.81122 0.934631 3.79877 1.39868 5.82715 1.3562c2.03101-0.052002 4.01086-0.614197 5.7688-1.62811c2.76318-1.60657 4.76691-4.25195 5.57556-7.30688c0.53479-2.02051 0.486267-3.94714 0.155823-5.66913c-0.192566-0.99231-0.473755-1.88397-0.754089-2.66162c-0.334168-0.926392-0.738342-1.86096-1.3938-3.41028c-1.68018-3.93103-3.35065-7.85938-5.01862-11.7974c-1.00336-2.34485-1.54169-3.59424-1.99725-5.039c-0.597351-1.88568-0.883972-3.6167-0.869812-5.35095c0.0307617-4.68835 2.30682-9.14453 6.04095-12.0354c3.77087-2.91211 8.66095-3.95563 13.1761-2.80182c1.67755 0.42334 3.28802 1.13922 4.95453 2.19073c1.30347 0.820923 2.32336 1.61841 4.36835 3.19415c3.38422 2.6131 6.76581 5.23578 10.1499 7.84882c1.9682 1.51404 2.76489 2.13873 3.83289 2.79382c1.43365 0.876038 2.87585 1.48541 4.37036 1.81891c1.99255 0.444702 4.03839 0.375916 5.98926-0.19397c1.9411-0.572388 3.70935-1.62494 5.13611-3.06799c1.43396-1.43079 2.47491-3.21381 3.03046-5.15643c0.56781-1.94971 0.62262-3.99384 0.167419-5.98676c-0.333801-1.47449-0.944519-2.91888-1.84644-4.35767c-0.65979-1.06427-1.28412-1.87091-2.81696-3.81805c-2.63641-3.36682-5.26306-6.73108-7.89948-10.0978c-1.57812-2.01086-2.41229-3.07996-3.23419-4.35266c-1.06848-1.66901-1.78387-3.26526-2.21918-4.94257c-1.19116-4.56702-0.126892-9.44733 2.72644-13.1921c2.8855-3.7879 7.33386-6.05524 11.9847-6.11725c1.77594-0.0264282 3.52094 0.259522 5.35651 0.828186c1.47095 0.461792 2.66943 0.975586 5.05481 1.96906c3.94086 1.64313 7.88892 3.29852 11.8298 4.94165c1.02246 0.436218 2.17767 0.917847 2.91132 1.19482c0.678101 0.251892 1.3421 0.47937 2.03815 0.663635c1.44043 0.381287 2.82574 0.541016 4.17511 0.484375c2.04132-0.0906372 3.99011-0.692078 5.72687-1.74261c1.72699-1.05328 3.164-2.53491 4.17542-4.28448c1.00427-1.76172 1.55078-3.74811 1.59088-5.77539c0.0401001-2.02734-0.437012-4.01569-1.38739-5.81897c-0.709167-1.34631-1.66736-2.57239-2.91992-3.74188c-0.912292-0.851746-1.72382-1.45972-3.70673-2.95697c-3.41638-2.56989-6.83264-5.13965-10.2394-7.70691c-2.04541-1.53455-3.133-2.34998-4.25195-3.35999c-1.46606-1.33978-2.5752-2.69885-3.42773-4.20728c-2.3064-4.06573-2.57971-9.05182-0.777649-13.4369c1.80975-4.414 5.50891-7.75897 10.0017-9.02142c1.65601-0.472046 3.40265-0.661438 5.38824-0.580627c1.53455 0.0647583 2.82251 0.240234 5.37921 0.585938c4.24432 0.575134 8.47888 1.14783 12.7136 1.72046c2.45752 0.329773 3.46716 0.462585 4.70868 0.501587c1.71417 0.0502319 3.2572-0.151672 4.70197-0.607178c1.95135-0.611023 3.6861-1.69318 5.08911-3.16321c1.39069-1.46295 2.39551-3.26593 2.91241-5.21869C763.82 576.782 763.839 574.718 763.354 572.759zM603.194 669.14c-41.6186 24.1972-91.146 30.8666-137.685 18.5478c-46.5392-12.3189-86.2809-42.6179-110.478-84.2366s-30.8665-91.146-18.5476-137.685c12.3189-46.5391 42.6177-86.2809 84.2364-110.478c41.6187-24.1972 91.146-30.8666 137.685-18.5477c46.5389 12.3188 86.2808 42.6178 110.478 84.2365c24.1973 41.6187 30.8668 91.1461 18.5479 137.685C675.112 605.201 644.812 644.943 603.194 669.14z" fill="#FFFFFF" opacity="0.6" style="opacity:0.6;fill:#FFFFFF;"/>
 </g>
</svg>
