<?xml version="1.0" encoding="UTF-8"?>
<!--Generator: Apple Native CoreSVG 341-->
<!DOCTYPE svg
PUBLIC "-//W3C//DTD SVG 1.1//EN"
       "http://www.w3.org/Graphics/SVG/1.1/DTD/svg11.dtd">
<svg version="1.1" xmlns="http://www.w3.org/2000/svg" xmlns:xlink="http://www.w3.org/1999/xlink" viewBox="0 0 1024 1024">
 <g/>
 <g id="top_cog">
  <path d="M908.373 531.284l-43.1008-5.96002c-16.8807-2.33429-16.9671-26.699-0.103394-29.1529l43.0576-6.26538c17.4429-2.53818 15.0883-28.3983-2.52631-27.7442l-43.4813 1.61499c-17.0296 0.632477-21.3454-23.3471-5.16418-28.692l41.3158-13.6471c16.7372-5.5286 9.92761-30.587-7.30591-26.8839l-42.5402 9.14078c-16.6608 3.58005-25.0751-19.2858-10.0679-27.3593l38.3181-20.6142c15.523-8.35098 4.46539-31.8462-11.8631-25.2068l-40.3065 16.3889c-15.7863 6.41882-28.0436-14.6385-14.666-25.1955l34.1562-26.9548c13.8372-10.9196-1.13245-32.1378-16.06-22.7639l-36.8484 23.1391c-14.4315 9.06256-30.159-9.54639-18.8181-22.2659l28.9568-32.4765c11.7305-13.1566-6.69592-31.4529-19.769-19.6293l-32.2703 29.1862c-12.639 11.4309-31.3589-4.16425-22.3989-18.6599l22.8774-37.0114c9.26758-14.9937-12.0561-29.8124-22.8774-15.8983L700.175 212.72c-10.4619 13.4519-31.6057 1.34436-25.299-14.487l16.1031-40.4217c6.52319-16.3752-17.0498-27.266-25.2905-11.6842l-20.342 38.4633c-7.96698 15.0642-30.8919 6.81215-27.4302-9.87376l8.83905-42.6039c3.58093-17.2592-21.5251-23.8911-26.9349-7.11498L586.467 166.409c-5.22998 16.2189-29.2397 12.073-28.7279-4.9606l1.30682-43.4915c0.529175-17.6188-25.3471-19.7903-27.7616-2.3297l-5.9599 43.101c-2.33429 16.8807-26.6991 16.967-29.1528 0.103332l-6.26547-43.0576c-2.53815-17.443-28.3984-15.0882-27.7441 2.52644l1.61484 43.4811c0.632568 17.0295-23.347 21.3455-28.692 5.16412l-13.647-41.3155c-5.52866-16.7373-30.587-9.92763-26.8841 7.30573l9.14087 42.5401c3.58002 16.6609-19.2858 25.0753-27.3593 10.068l-20.6142-38.3181c-8.35107-15.523-31.8463-4.46542-25.2068 11.8632l16.3889 40.3065c6.41879 15.7862-14.6386 28.0434-25.1955 14.6659l-26.9549-34.1564c-10.9197-13.837-32.1378 1.13243-22.7639 16.06l23.1391 36.8483c9.06247 14.4318-9.54636 30.1592-22.266 18.8182l-32.4766-28.9567c-13.1565-11.7307-31.4528 6.69586-19.6292 19.769l29.1862 32.2704c11.431 12.6388-4.16412 31.3588-18.6598 22.3988l-37.0116-22.8773c-14.9936-9.26782-29.8122 12.0559-15.8982 22.8772l34.3467 26.712c13.4518 10.4619 1.34436 31.6055-14.487 25.2988l-40.4218-16.1028c-16.3752-6.52341-27.266 17.0496-11.6842 25.2903l38.4633 20.342c15.0643 7.96698 6.81227 30.8919-9.8737 27.43l-42.6039-8.83899c-17.2592-3.58078-23.8911 21.5252-7.11498 26.9351l41.4112 13.3539c16.2188 5.2301 12.073 29.2397-4.96066 28.7279l-43.4913-1.30667c-17.6189-0.529297-19.7903 25.3469-2.32982 27.7614l43.1011 5.95999c16.8806 2.33426 16.967 26.699 0.103332 29.1528l-43.0578 6.2655c-17.4429 2.53815-15.0881 28.3983 2.52657 27.7441l43.481-1.61493c17.0296-0.632507 21.3455 23.347 5.16418 28.692l-41.3155 13.6472c-16.7373 5.5285-9.92764 30.5869 7.30573 26.8839l42.5401-9.14087c16.661-3.58002 25.0754 19.2858 10.0679 27.3594l-38.3181 20.6141c-15.5229 8.35101-4.46536 31.8463 11.8632 25.2069l40.3066-16.3889c15.7862-6.41882 28.0433 14.6384 14.6659 25.1954l-34.1564 26.9549c-13.837 10.9196 1.13243 32.1378 16.06 22.7639l36.8484-23.1392c14.4318-9.0625 30.1592 9.54639 18.8181 22.2659l-28.9566 32.4766c-11.7307 13.1565 6.6958 31.4529 19.7688 19.6293l32.2705-29.1862c12.6389-11.4309 31.3588 4.16425 22.3988 18.6599l-22.8773 37.0114c-9.26785 14.9937 12.0558 29.8124 22.8771 15.8983l26.712-34.3466c10.4618-13.452 31.6055-1.34436 25.2988 14.4869l-16.1028 40.4218c-6.5235 16.3752 17.0495 27.2659 25.2903 11.6841l20.342-38.4632c7.96701-15.0643 30.8919-6.81219 27.4301 9.87372l-8.83905 42.6038c-3.58069 17.2593 21.5253 23.8911 26.9352 7.11505l13.3537-41.4113c5.23022-16.2188 29.2397-12.0729 28.7279 4.96063l-1.30658 43.4915c-0.529419 17.6188 25.3469 19.7902 27.7613 2.32965l5.96005-43.101c2.33414-16.8806 26.6989-16.967 29.1528-0.103332l6.26532 43.0577c2.53815 17.4431 28.3984 15.0882 27.7443-2.52643l-1.61511-43.4811c-0.632507-17.0295 23.3472-21.3455 28.6921-5.16412l13.6472 41.3156c5.52856 16.7373 30.587 9.92767 26.8838-7.30579l-9.14081-42.5402c-3.57996-16.6609 19.2859-25.0753 27.3594-10.0679l20.6142 38.3181c8.35089 15.5229 31.8461 4.46539 25.207-11.8631l-16.3892-40.3066c-6.41882-15.7861 14.6385-28.0433 25.1956-14.6659l26.9547 34.1563c10.9197 13.837 32.1378-1.13245 22.7641-16.0601l-23.1392-36.8483c-9.06262-14.4317 9.5462-30.1592 22.266-18.8182l32.4764 28.9568c13.1566 11.7307 31.4528-6.69592 19.6293-19.769l-29.1863-32.2704c-11.4308-12.6388 4.16437-31.3588 18.6598-22.3988l37.0115 22.8774c14.9936 9.26776 29.8124-12.056 15.8982-22.8772l-34.3464-26.712c-13.4521-10.4619-1.34436-31.6055 14.487-25.2988l40.4216 16.1028c16.3751 6.52344 27.2659-17.0496 11.6841-25.2903l-38.4633-20.342c-15.0641-7.96698-6.81201-30.8918 9.87372-27.43l42.604 8.83905c17.2593 3.58075 23.8911-21.5253 7.11505-26.9351l-41.4114-13.3539c-16.2187-5.2301-12.073-29.2396 4.96063-28.7278l43.4916 1.30658C923.662 559.575 925.834 533.699 908.373 531.284zM377.018 691.952c-2.94763 5.15979-5.23206 9.18958-7.28055 12.47c-2.7114 4.36066-5.55386 8.30261-9.04446 11.8676c-3.54016 3.6051-7.85767 6.90356-13.1736 9.29755c-5.23639 2.3537-10.8752 3.56128-16.5777 3.58148c-6.00113 0.0212402-11.9372-1.28497-17.5295-3.86975c-2.95084-1.3667-5.83295-3.08289-8.69693-5.20831c-4.51016-3.3371-8.59488-7.36426-12.5414-11.7112c-3.4371-3.78998-7.20505-8.30719-10.534-12.5067c-41.2272-51.9958-63.7785-116.402-64.014-182.834c-0.235443-66.4216 21.8586-130.996 62.7162-183.283c3.29907-4.23297 7.03497-8.75693 10.4451-12.5711c3.91562-4.37485 7.97165-8.44083 12.458-11.8098c2.84891-2.13571 5.71872-3.88226 8.65979-5.2699c5.57385-2.62433 11.5005-3.9726 17.5017-3.99387c5.70251-0.0202026 11.3497 1.14728 16.6027 3.47379c5.33276 2.35623 9.67355 5.62408 13.2392 9.20398c3.51575 3.53018 6.38611 7.45184 9.12833 11.7932c2.07172 3.26578 4.38467 7.27933 7.3688 12.418c18.5047 31.8883 37.0095 63.7666 55.5242 95.6448c5.07669 8.74387 9.04184 15.5358 12.268 21.6017c3.5166 6.6138 6.38486 12.7908 8.75601 19.0994c2.30075 6.12909 4.35535 12.9977 5.79547 20.5868c1.39938 7.33984 2.1124 14.7819 2.13885 22.2463c0.0264893 7.47449-0.633759 14.9114-1.98108 22.261c-1.38626 7.60913-3.39215 14.4821-5.64941 20.6273c-2.32632 6.33521-5.15076 12.5225-8.62036 19.161c-1.64102 3.14929-3.36163 6.25897-5.09229 9.34875c-1.90869 3.37976-3.80783 6.70959-7.02228 12.3394C413.574 627.935 395.296 659.943 377.018 691.952zM795.517 590.436c-0.729004 4.89246-2.03546 9.75696-3.55121 14.5225c-1.55524 4.87543-3.56586 10.4111-5.52863 15.3977c-24.2935 61.7985-68.646 113.589-125.902 147.003c-57.0973 33.3239-123.89 46.5437-189.657 37.1767c-5.30728-0.749573-11.0831-1.72705-16.0829-2.78711c-5.73676-1.20709-11.2754-2.70441-16.4286-4.91144c-4.565-1.95978-8.95319-4.53882-12.9068-8.07751c-4.03351-3.59821-7.25317-7.87787-9.58902-12.6597c-2.70694-5.55884-4.11172-11.6413-4.13376-17.8583c-0.0144348-4.07153 0.568634-7.99548 1.5705-11.7413c1.29678-4.81464 3.25156-9.27228 5.63376-13.8313c1.77924-3.42926 4.09387-7.43915 7.04138-12.599c18.2782-32.0186 36.5564-64.0273 54.8347-96.0359c5.01483-8.7796 8.89169-15.6192 12.5235-21.46c3.94827-6.3609 7.84979-11.9332 12.1207-17.1476c4.14215-5.06421 9.04004-10.2808 14.874-15.3311c5.64569-4.87994 11.7111-9.22241 18.1469-12.9775c6.4455-3.75513 13.1918-6.90259 20.2192-9.41235c7.26599-2.60034 14.2065-4.2915 20.6417-5.4021c6.63409-1.14117 13.3895-1.79382 20.8524-2.09973c3.54248-0.142334 7.08539-0.214783 10.6282-0.247192c3.87109-0.0437012 7.69299-0.0472412 14.1716-0.0701904l110.359-0.391174c5.93127-0.0210571 10.559-0.0574341 14.4109 0.0786133c5.1261 0.181396 9.95465 0.683227 14.7762 1.93347c4.49225 1.16162 9.04718 3.02167 13.3867 5.93018c4.3595 2.92853 8.08466 6.62756 11.006 10.9183c3.98169 5.81384 6.36395 12.5215 7.02649 19.6943C796.354 582.299 796.12 586.442 795.517 590.436zM481.476 512.103c-0.0290527-8.1929 3.18753-16.068 8.94922-21.8764c5.76154-5.81842 13.5823-9.09943 21.7628-9.12845c8.17072-0.0289612 16.0147 3.19653 21.8173 8.97397c5.80261 5.76743 9.07507 13.6196 9.10406 21.8125c0.0290527 8.19299-3.18762 16.0681-8.94916 21.8865c-5.76154 5.80841-13.5825 9.09943-21.7532 9.12842c-8.18048 0.0289917-16.0244-3.20654-21.827-8.97394C484.777 528.148 481.505 520.296 481.476 512.103zM795.486 443.929c-0.611633 7.18723-2.94629 13.9017-6.88666 19.7535c-2.89087 4.31137-6.58972 8.0368-10.9284 10.9861c-4.31879 2.93924-8.86047 4.83142-13.3443 6.03488c-4.81256 1.28439-9.63751 1.81046-14.7621 2.02823c-3.85095 0.163361-8.47876 0.169739-14.41 0.190765l-110.359 0.391205c-10.0914 0.0357666-17.9437 0.0835876-24.8016-0.151611c-7.46484-0.25296-14.2247-0.847717-20.8666-1.9418c-6.44299-1.07492-13.3953-2.71686-20.6794-5.25574c-7.04511-2.45987-13.8135-5.55942-20.2855-9.27872c-6.46228-3.70935-12.5582-7.99884-18.2384-12.8486c-5.86963-4.99875-10.8043-10.1805-14.9823-15.2253c-4.30774-5.18393-8.24866-10.7285-12.2419-17.0512c-1.89172-3.00702-3.72369-6.0542-5.52603-9.11145c-1.97235-3.33615-3.89493-6.6524-7.14935-12.2692c-18.5047-31.8783-37.0093-63.7565-55.514-95.6348c-2.98401-5.13879-5.32706-9.14218-7.13058-12.5587c-2.41443-4.54208-4.40076-8.97583-5.73166-13.7911c-1.02838-3.73856-1.63922-7.64835-1.65369-11.7298c-0.0220337-6.21707 1.33963-12.2993 4.00708-17.8772c2.30185-4.80824 5.49112-9.11067 9.49902-12.7374c3.92841-3.56654 8.29822-6.16673 12.8492-8.15874c5.13736-2.25359 10.6653-3.78006 16.3933-5.03781c4.98221-1.0954 10.7709-2.1039 16.0627-2.90106c65.6995-9.83298 132.584 2.91307 189.916 35.8313c57.4916 33.0074 102.21 84.482 126.941 146.107c1.99817 4.99258 4.04791 10.4939 5.63763 15.3582c1.5495 4.7547 2.89038 9.60986 3.65417 14.507C795.585 435.536 795.849 439.677 795.486 443.929z" fill="#FFFFFF" opacity="0.9" style="opacity:0.9;fill:#FFFFFF;"/>
 </g>
</svg>
