<?xml version="1.0" encoding="UTF-8" standalone="no"?><svg version="1.1" width="562" height="562" xml:space="preserve" viewBox="0 0 562 562" xmlns:xlink="http://www.w3.org/1999/xlink" xmlns="http://www.w3.org/2000/svg" xmlns:svg="http://www.w3.org/2000/svg"><defs><linearGradient id="d"><stop offset="0" stop-color="#ffc149"/><stop offset="1" stop-color="#ffbe40"/></linearGradient><linearGradient id="c"><stop offset="0" stop-color="#ffaf2a"/><stop offset="1" stop-color="#ffab1f"/></linearGradient><linearGradient id="b"><stop offset="0" stop-color="#f78d1c"/><stop offset="1" stop-color="#fe9405"/></linearGradient><linearGradient id="a"><stop offset="0" stop-color="#303030"/><stop offset="1" stop-color="#141414"/></linearGradient><linearGradient xlink:href="#a" id="e" x1="74.339012" y1="0" x2="74.331757" y2="148.67802" gradientUnits="userSpaceOnUse" gradientTransform="translate(.02744) scale(3.7799801)"/><linearGradient xlink:href="#b" id="f" x1="74.331757" y1="18.350653" x2="74.331757" y2="119.74381" gradientUnits="userSpaceOnUse" gradientTransform="translate(.02744) scale(3.7799801)"/><linearGradient xlink:href="#c" id="g" x1="74.346268" y1="28.600306" x2="74.346268" y2="111.7154" gradientUnits="userSpaceOnUse" gradientTransform="translate(.02744) scale(3.7799801)"/><linearGradient xlink:href="#d" id="h" x1="74.331749" y1="38.92931" x2="74.331749" y2="103.71603" gradientUnits="userSpaceOnUse" gradientTransform="translate(.02744) scale(3.7799801)"/></defs><path d="M561.99994 386.19405c0 6.71982 0 13.42751-.05066 20.13512-.03331 5.65694-.09763 11.3138-.24439 16.95854-.1557 12.36751-1.24194 24.70586-3.24978 36.91031-2.08922 12.21792-5.9865 24.04487-11.56978 35.10211-11.31653 22.21701-29.37788 40.27921-51.59374 51.59626-11.05206 5.57589-22.87417 9.47153-35.0759 11.55818-12.21732 2.01595-24.55681 3.10334-36.92073 3.24999-5.65143.14604-11.30433.2315-16.95761.25625-6.71952.03918-13.42678.03918-20.1341.03918H175.79673c-6.70731 0-13.41463 0-20.13414-.03325-5.65323-.02223-11.30612-.10242-16.95762-.2444-12.37139-.1579-24.71329-1.24831-36.92074-3.26223-12.205097-2.0771-24.03141-5.98689-35.07589-11.55824-22.213518-11.31491-40.27445-29.37249-51.593729-51.58443-5.5815791-11.06408-9.4811038-22.89917-11.569763-35.11432C1.5370599 448.00277.45072104 435.6685.29504808 423.30502c-.14668103-5.65694-.21974055-11.31381-.2444684-16.9707C0 399.61446 0 392.919 0 386.19918V175.80651c0-6.71989 0-13.43973.05057968-20.15956.02248-5.64473.09778737-11.3016.2444684-16.94627.15567296-12.3635 1.24218042-24.69777 3.24979992-36.89818 2.0891652-12.217879 5.9864985-24.044834 11.569763-35.114274C26.431137 44.471237 44.492463 26.408947 66.70834 15.091895c11.048915-5.5730184 22.866578-9.468522 35.0637-11.5581507C113.98932 1.5299892 126.3288.44263127 138.69272.28381007 144.34938.13712804 150.00599.06406804 155.65034.03934 162.3699 0 169.08942 0 175.78448 0h210.40654c6.71955 0 13.43908 0 20.14637.03934 5.65324.02248 11.30607.10228404 16.95761.24447007 12.36392.159046 24.70341 1.24617913 36.90849 3.24993423 12.2173 2.0892918 24.0315 5.9868183 35.08814 11.5581507 22.2214 11.313623 40.2876 29.376476 51.60594 51.596331 5.57685 11.06067 9.47227 22.89162 11.55754 35.102084 2.008 12.20445 3.0943 24.54277 3.24983 36.91037.14676 5.65686.21965 11.31379.2444 16.95846.05065 6.71984.05065 13.42748.05065 20.13511Z" fill="url(#e)"/><path d="m486.76675 227.86615-42.19626-33.36727v-66.35755c0-4.71947-3.02478-7.35606-7.19935-7.35606H406.3753c-3.8414 0-7.33297 2.08782-7.33316 7.35606l-.00098 30.35459S292.88469 74.462656 290.79934 72.816331c-4.17068-3.292646-6.74992-4.170687-9.76818-4.170687-2.96338 0-5.54263.878041-9.76818 4.170687-4.17069 3.29265-190.284136 150.594379-195.881637 154.984579-3.786931 3.17761-4.296911 7.16971-2.295971 9.91184 1.389517 1.90422 3.110689 3.20387 6.983147 3.20387h36.334921v189.85982c0 5.09892.45016 7.55878 1.21819 9.96852.90937 2.85324 2.26435 4.65062 3.84537 6.18855 1.69264 1.64652 3.09132 2.6834 5.03263 3.55257 2.30403 1.03156 6.17096 1.74084 11.50842 1.74084h286.11146c9.05589 0 13.0243-1.72523 16.51606-5.31231 1.50885-1.55006 2.66341-3.06447 3.48809-5.19615 1.08379-2.80142 1.55293-5.68109 1.55293-11.81108v-188.9804h36.29831c3.37303 0 5.32305-1.14732 6.76938-2.86559 2.29641-2.72813 1.84686-7.18253-1.97753-10.19524Z" fill="url(#f)"/><path d="m405.57016 203.23625-116.2288-91.67039c-3.07314-2.41461-5.81701-3.45728-8.2865-3.45728-2.52436 0-5.21336 1.04267-8.28649 3.51216l-116.24022 91.61551c-2.32375 1.83963-4.19431 3.27165-5.69264 4.58706-4.85732 4.26428-4.24018 7.80069-4.24018 16.92491v184.04529c0 4.63259 1.26846 7.80993 3.8218 10.12604 2.25588 2.04629 5.13587 3.12528 9.40897 3.12528h242.01322c5.10978 0 8.14295-1.29419 10.40432-3.73583 2.14057-2.31119 3.20444-5.03799 3.20444-9.51549V224.74822c0-3.12644.10044-5.70212-.03005-7.92531-.13468-2.29469-.28236-3.42495-.95546-4.82503-.59021-1.22774-1.64123-2.79494-2.67559-3.75587-1.34317-1.24782-3.25921-2.66431-6.21682-5.00576Z" fill="url(#g)"/><path d="M377.22653 220.17061c-3.18289-2.46949-87.1169-68.57352-89.36687-70.32959-2.24998-1.81096-4.66459-2.689-6.85968-2.689-2.1951 0-4.60971.93292-6.85969 2.689-2.24997 1.81095-86.1954 67.8601-89.3783 70.32959-8.76656 6.09055-7.46333 8.9999-7.46333 16.84738V379.7557c0 8.12185 4.6097 11.5297 11.35963 11.5297h184.72684c6.74989 0 11.35961-3.40785 11.35961-11.5297V237.01799c-.02529-3.61592.22136-6.32849-.2988-8.53365-.60877-2.58061-2.30152-4.58466-7.21941-8.31373Z" fill="url(#h)"/><path d="M349.01705 237.90632c-3.29263-2.63412-60.7782-48.0425-62.53428-49.41443-1.53657-1.31706-3.45728-2.03047-5.43286-2.08535-1.92072 0-3.67679.71341-5.43288 2.08535-1.75607 1.37193-59.29803 46.78031-62.5358 49.41443-4.99385 4.00606-4.99385 5.14894-4.99385 12.1828v100.92634c0 6.91361 3.83442 9.58606 9.06317 9.58606h127.70603c5.24967 0 9.09947-2.68315 9.09947-9.62443V250.08912c.04001-3.36284.18261-6.35679-1.44363-8.67352-.75581-1.07672-1.86812-2.22179-3.49537-3.50928Z" fill="#ffd362"/><path d="M281.02811 330.38162h34.61288c4.73369 0 8.13392-1.55324 8.13602-8.28395l.01914-61.34374c.00118-3.78728-1.61059-5.36438-4.29958-7.55948-1.53657-1.26217-33.30998-26.10532-34.4624-27.03824-2.33193-1.59579-5.73567-1.57985-8.01211 0-1.15243.93292-32.93864 25.77607-34.47521 27.03824-2.30891 1.89331-3.34884 3.1593-3.84471 4.67955-.42003 1.28773-.46089 2.81945-.43573 4.43011v59.76503c0 3.1371.8713 5.14621 2.11106 6.40164 1.45867 1.47709 3.48531 1.91084 6.05297 1.91084Z" fill="#ffe780"/></svg>