<?xml version="1.0" encoding="UTF-8"?>
<!--Generator: Apple Native CoreSVG 341-->
<!DOCTYPE svg
PUBLIC "-//W3C//DTD SVG 1.1//EN"
       "http://www.w3.org/Graphics/SVG/1.1/DTD/svg11.dtd">
<svg version="1.1" xmlns="http://www.w3.org/2000/svg" xmlns:xlink="http://www.w3.org/1999/xlink" viewBox="0 0 1024 1024">
 <g id="low_cog">
  <path d="M771.772 574.794c-0.508484-2.03772-1.51324-3.89667-2.95343-5.44324c-1.06201-1.15784-2.34735-2.1181-3.90009-2.95679c-1.1449-0.602356-2.11963-0.999329-4.49542-1.95966c-4.09888-1.64093-8.19232-3.30182-12.2911-4.94269c-2.45306-0.991455-3.74689-1.51569-5.13831-2.23682c-1.81726-0.930054-3.28925-1.99323-4.54517-3.26654c-3.37976-3.42841-5.00183-8.32672-4.38037-13.2192c0.623535-4.8598 3.41846-9.1983 7.56897-11.6706c1.5368-0.918945 3.23792-1.56989 5.22968-2.02625c1.55658-0.347046 2.88251-0.509277 5.53949-0.853699c4.38239-0.561218 8.76471-1.12256 13.1471-1.68384c2.54388-0.320923 3.58624-0.461975 4.84113-0.760559c1.71033-0.402649 3.19794-1.01385 4.52313-1.86047c1.77563-1.13367 3.22076-2.6756 4.23132-4.51422c1.00055-1.84137 1.52539-3.90485 1.51416-6.00327c-0.0038452-2.08585-0.536926-4.15137-1.5495-5.98035c-1.02264-1.83163-2.47552-3.37082-4.2525-4.49341c-1.19305-0.743408-2.50891-1.30557-3.99762-1.69962c-0.729309-0.193054-1.42938-0.335602-2.17987-0.44873c-0.830383-0.134247-2.04169-0.283844-3.21301-0.422821c-4.38232-0.529236-8.76196-1.06842-13.1543-1.60031c-2.62036-0.319397-4.00952-0.483948-5.53406-0.823364c-1.9494-0.43045-3.66559-1.05582-5.23706-1.98495c-4.15552-2.43637-6.99152-6.74728-7.65631-11.6274c-0.648071-4.8222 0.891419-9.74963 4.29639-13.2424c1.2486-1.28391 2.70728-2.35178 4.52045-3.3045c1.38879-0.7229 2.68469-1.25659 5.13019-2.25568c4.08942-1.67593 8.16864-3.35446 12.258-5.03036c2.37494-0.975037 3.34564-1.37024 4.4823-1.98886c1.54834-0.841034 2.83276-1.81604 3.88647-2.96979c1.4278-1.55719 2.42377-3.42108 2.92065-5.45987c0.494324-2.02881 0.458374-4.15518-0.0852661-6.18076s-1.60358-3.87778-3.05432-5.38437c-1.45081-1.50659-3.25311-2.61447-5.27008-3.23386c-1.5202-0.477234-3.11707-0.664764-4.86523-0.603638c-1.28424 0.0450134-2.32648 0.186035-4.86102 0.552216c-4.37549 0.616547-8.75104 1.23312-13.1266 1.84961c-2.61237 0.377655-3.99878 0.56662-5.55927 0.645386c-2.03436 0.0922546-3.84686-0.0881348-5.57007-0.565674c-4.64258-1.28232-8.50372-4.7099-10.4015-9.25357c-1.88574-4.50839-1.65411-9.66443 0.718079-13.901c0.871338-1.55478 2.01648-2.97293 3.51715-4.36121c1.1452-1.0546 2.25757-1.90414 4.36035-3.50717c3.51892-2.67151 7.03052-5.35565 10.5495-8.02713c2.03705-1.5563 2.86804-2.19162 3.80786-3.07614c1.28522-1.22067 2.27301-2.48813 2.99408-3.87955c0.965942-1.87186 1.44543-3.92593 1.40424-6.03235c-0.0563354-2.08902-0.63739-4.13519-1.68536-5.95215c-1.66016-2.85568-4.39423-4.92642-7.55157-5.76218c-2.08801-0.552704-4.07935-0.502502-5.85889-0.161011c-1.02557 0.198944-1.9472 0.489563-2.75079 0.779297c-0.947449 0.347931-1.9234 0.763153-3.52448 1.44058c-4.06274 1.73642-8.12268 3.46286-12.1926 5.18665c-2.42346 1.03705-3.7146 1.59329-5.20776 2.06406c-1.94891 0.617401-3.73773 0.913696-5.53003 0.898987c-4.84552-0.0317383-9.44092-2.38141-12.4386-6.24329c-3.00977-3.89713-4.07825-8.94827-2.89569-13.6174c0.4375-1.73373 1.17749-3.39816 2.2641-5.12048c0.848328-1.34705 1.67261-2.40112 3.30383-4.52457c2.70795-3.48486 5.40851-6.98239 8.10895-10.48c1.56476-2.03415 2.21051-2.85748 2.88739-3.96121c0.915405-1.47906 1.54523-2.96948 1.87994-4.5166c0.459534-2.05942 0.388428-4.17371-0.2005-6.18991c-0.591492-2.00613-1.67932-3.83365-3.17072-5.30823c-1.4787-1.4819-3.32147-2.55774-5.32916-3.13193c-2.01501-0.586823-4.12756-0.643555-6.18726-0.173065c-1.52393 0.345032-3.00671 0.978912-4.50366 1.90839c-1.09991 0.681732-1.92358 1.32968-3.94592 2.91129c-3.47961 2.72464-6.95654 5.43936-10.436 8.16403c-2.07819 1.63089-3.18317 2.4931-4.49841 3.34238c-1.72491 1.10437-3.37469 1.84366-5.10822 2.29361c-4.71979 1.23099-9.76361 0.131134-13.6238-2.81509c-3.92468-2.98468-6.26807-7.58215-6.32947-12.3988c-0.0299683-1.82544 0.265564-3.62881 0.863281-5.52341c0.467224-1.52274 0.998169-2.76135 2.02502-5.2265c1.69812-4.07297 3.40894-8.1532 5.11719-12.2234c0.440735-1.05942 0.938538-2.25336 1.22473-3.01147c0.270386-0.698242 0.495544-1.38705 0.685974-2.10638c0.394043-1.48868 0.559082-2.92038 0.50061-4.31509c-0.09375-2.10956-0.712585-4.13364-1.80103-5.91855c-1.08856-1.78494-2.60974-3.26743-4.42798-4.31531c-1.82068-1.0379-3.87366-1.60266-5.96887-1.6441c-2.09515-0.0414429-4.15021 0.451691-6.01648 1.44373c-1.38873 0.7229-2.65582 1.71323-3.8645 3.00769c-0.880371 0.943024-1.50867 1.78171-3.05603 3.83112c-2.646 3.53329-5.29919 7.05405-7.95508 10.5848c-1.59589 2.11139-2.42871 3.23807-3.48242 4.39175c-1.38483 1.51511-2.78937 2.66147-4.33826 3.54514c-4.21185 2.3812-9.36499 2.66357-13.8996 0.811127c-4.54919-1.87775-8.01361-5.71347-9.32086-10.3467c-0.487976-1.71152-0.683594-3.5166-0.600159-5.56863c0.0670166-1.58594 0.258301-2.91455 0.605652-5.55954c0.594421-4.38644 1.18622-8.76291 1.77802-13.1393c0.340759-2.53986 0.488098-3.58063 0.518311-4.8663c0.052002-1.77167-0.156616-3.36642-0.62738-4.85962c-0.631531-2.01672-1.74994-3.80948-3.27191-5.24934c-1.50928-1.44736-3.37262-2.48573-5.39075-3.01993c-2.02826-0.53688-4.16138-0.556381-6.1864-0.0552521c-2.03766 0.508362-3.89655 1.51299-5.44318 2.95316c-1.14777 1.06476-2.1181 2.34747-2.94678 3.90286c-0.612305 1.14227-1.0094 2.11691-1.95966 4.49545c-1.65094 4.0961-3.30182 8.1922-4.95264 12.2883c-0.991516 2.45316-1.51569 3.74701-2.22687 5.14111c-0.940002 1.81461-2.0033 3.28653-3.27649 4.54251c-3.42853 3.37967-8.32678 5.0018-13.2092 4.38297c-4.86981-0.62619-9.20837-3.42102-11.678-7.58154c-0.92157-1.52689-1.57251-3.22803-2.0188-5.21713c-0.357117-1.55923-0.516663-2.89514-0.853699-5.53952c-0.571289-4.38498-1.13269-8.76736-1.69385-13.1496c-0.323608-2.534-0.452026-3.58362-0.750549-4.83871c-0.412659-1.71292-1.02386-3.20041-1.87048-4.52574c-1.13373-1.77544-2.67566-3.22067-4.51428-4.23122c-1.84131-1.00055-3.90485-1.52544-5.99326-1.51157c-2.09576 0.0011597-4.16135 0.534226-5.99026 1.54691c-1.8317 1.02258-3.37091 2.47549-4.49619 4.26239c-0.740723 1.18315-1.30283 2.49905-1.69687 3.98773c-0.193054 0.729355-0.335663 1.42931-0.448852 2.17986c-0.134186 0.83046-0.273834 2.04436-0.422699 3.21309c-0.529358 4.38226-1.07114 8.77194-1.60037 13.1543c-0.319427 2.6203-0.483948 4.00943-0.823395 5.5339c-0.42041 1.95218-1.05576 3.66562-1.98492 5.23718c-2.43637 4.15546-6.74722 6.99158-11.6274 7.65631c-4.82217 0.64798-9.7496-0.89154-13.2425-4.29651c-1.2739-1.24594-2.35168-2.70721-3.30444-4.52039c-0.722931-1.38876-1.25653-2.68469-2.25571-5.13016c-1.67584-4.08936-3.35449-8.1687-5.03033-12.2581c-0.975037-2.37494-1.37027-3.34555-1.97897-4.47955c-0.840942-1.54837-1.82596-2.83542-2.97974-3.88922c-1.5571-1.42786-3.42105-2.42371-5.44986-2.91798c-2.03873-0.496903-4.16507-0.461044-6.19064 0.0826263c-2.01556 0.546295-3.87787 1.60359-5.3844 3.05438c-1.50665 1.45084-2.61444 3.25305-3.23386 5.27014c-0.467285 1.52274-0.664795 3.11691-0.603668 4.86505c0.0450745 1.28421 0.196045 2.32913 0.552154 4.86105c0.616577 4.37558 1.23315 8.75113 1.84961 13.1267c0.377624 2.6124 0.576599 4.00146 0.645447 5.55923c0.0922546 2.03439-0.0881348 3.84689-0.565674 5.57007c-1.27243 4.64536-4.70999 8.50375-9.25363 10.4015c-4.50839 1.88571-9.66434 1.65424-13.901-0.718079c-1.55472-0.871246-2.96298-2.01382-4.3511-3.51453c-1.0647-1.14783-1.91431-2.2601-3.51736-4.36292c-2.67136-3.51892-5.35562-7.03055-8.02698-10.5495c-1.55637-2.03705-2.19162-2.86807-3.0762-3.80786c-1.21066-1.28265-2.48816-2.27295-3.87955-2.99408c-1.87189-0.965912-3.92322-1.45547-6.02234-1.40167c-2.09912 0.053772-4.14526 0.634705-5.95212 1.68527c-2.86572 1.65768-4.93655 4.39178-5.77228 7.54898c-0.552734 2.0882-0.502441 4.07938-0.15094 5.86163c0.198883 1.02554 0.479492 1.94446 0.769226 2.74814c0.347992 0.947418 0.763245 1.92331 1.44061 3.52457c1.73645 4.06259 3.46289 8.12256 5.19669 12.1951c1.0271 2.42084 1.58322 3.71201 2.05405 5.20511c0.617493 1.94885 0.913666 3.73792 0.898926 5.53012c-0.0316772 4.84543-2.38129 9.44083-6.24329 12.4385c-3.89706 3.00977-8.94815 4.07828-13.6173 2.89578c-1.73389-0.43753-3.39828-1.17749-5.12048-2.26416c-1.34705-0.848328-2.40118-1.67264-4.51196-3.31119c-3.4975-2.7005-6.99506-5.40109-10.4927-8.10162c-2.034-1.56479-2.85745-2.21039-3.96115-2.88745c-1.4791-0.915405-2.96948-1.54507-4.51657-1.87973c-2.05939-0.459656-4.17368-0.388489-6.17993 0.203033c-2.01617 0.588898-3.84375 1.67679-5.31833 3.16812c-1.47183 1.48138-2.55768 3.3215-3.13177 5.32913c-0.576874 2.01767-0.643616 4.12756-0.173187 6.18719c0.345062 1.52402 0.976379 3.01682 1.90851 4.50372c0.681641 1.09991 1.32968 1.92361 2.91122 3.94592c2.72461 3.47952 5.44931 6.95911 8.16403 10.4361c1.63095 2.07816 2.4931 3.18304 3.34235 4.49838c1.10431 1.72488 1.84375 3.37469 2.29364 5.10809c1.23096 4.72 0.131043 9.76379-2.80508 13.6266c-2.99466 3.92218-7.58218 6.2681-12.3988 6.32953c-1.83542 0.0273438-3.62885-0.265655-5.53339-0.865967c-1.52283-0.467255-2.76138-0.99823-5.22647-2.02496c-4.07037-1.70819-8.15326-3.40903-12.2235-5.11722c-1.05936-0.440765-2.2533-0.938538-3.00146-1.22211c-0.710846-0.263001-1.39706-0.498108-2.11642-0.688507c-1.48868-0.394074-2.91037-0.556549-4.31506-0.500763c-2.09955 0.096405-4.12363 0.715302-5.91858 1.80115c-1.78488 1.08841-3.26743 2.60977-4.30533 4.43048c-1.04794 1.81812-1.61261 3.87106-1.65405 5.96631c-0.0314636 2.09781 0.451752 4.15015 1.44373 6.01639c0.722931 1.38879 1.72324 2.65854 3.00769 3.86453c0.943085 0.880463 1.78171 1.5087 3.83377 3.04617c3.5307 2.65585 7.0614 5.31171 10.5921 7.96762c2.1015 1.59329 3.22818 2.42609 4.38171 3.47983c1.51514 1.38464 2.66153 2.78934 3.54526 4.33826c2.3912 4.21451 2.66354 9.36496 0.811096 13.8995c-1.86774 4.55194-5.70346 8.01627-10.3367 9.32367c-1.72144 0.485169-3.52661 0.680908-5.56857 0.600098c-1.59595-0.0696716-2.92453-0.260956-5.56961-0.608276c-4.37643-0.591858-8.76288-1.18628-13.1393-1.77811c-2.53979-0.340851-3.58066-0.488068-4.86624-0.51828c-1.77173-0.052002-3.36658 0.156586-4.85968 0.62735c-2.01675 0.631531-3.80948 1.75-5.24934 3.27188c-1.44736 1.50925-2.48573 3.37265-3.01996 5.3909c-0.536865 2.0282-0.556351 4.16129-0.0452271 6.18896c0.498383 2.03491 1.50298 3.89389 2.94318 5.44043c1.06468 1.14783 2.34746 2.11816 3.91289 2.94952c1.1322 0.609711 2.10693 1.00671 4.48541 1.95703c4.0961 1.65091 8.1922 3.30176 12.2883 4.95264c2.45319 0.991425 3.74701 1.51572 5.14117 2.22687c1.81451 0.940033 3.2865 2.0032 4.54245 3.27649c3.3797 3.42844 5.0018 8.32675 4.38297 13.2092c-0.62619 4.86987-3.42099 9.20844-7.57144 11.6807c-1.53696 0.918945-3.22815 1.57245-5.22729 2.0162c-1.55908 0.357056-2.88504 0.519226-5.53217 0.866333c-4.38962 0.548645-8.77454 1.11993-13.1568 1.68124c-2.53398 0.323578-3.57372 0.45459-4.82877 0.753174c-1.7229 0.409943-3.2104 1.02118-4.53574 1.8678c-1.77536 1.13373-3.22064 2.6756-4.22122 4.51694c-1.01054 1.83868-1.53548 3.90213-1.52162 5.9906c0.0012054 2.09583 0.534286 4.16138 1.55695 5.99298c1.0127 1.82898 2.46553 3.36823 4.25244 4.49335c1.18312 0.740845 2.49901 1.30304 3.98769 1.69708c0.72934 0.193054 1.4294 0.33551 2.1799 0.448669c0.830475 0.134338 2.04434 0.273804 3.21304 0.422852c4.38229 0.529175 8.77194 1.07111 13.1544 1.60028c2.62024 0.319397 4.00928 0.483948 5.54382 0.825989c1.94217 0.417847 3.6557 1.05316 5.23718 1.98505c4.14548 2.43372 6.98163 6.74457 7.64633 11.6247c0.647919 4.8222-0.891571 9.74969-4.29645 13.2425c-1.24594 1.27393-2.7074 2.35175-4.52045 3.30444c-1.38876 0.7229-2.68463 1.25659-5.13016 2.25568c-4.07938 1.67859-8.16876 3.35449-12.258 5.03046c-2.37497 0.975037-3.34561 1.37024-4.48218 1.98883c-1.54581 0.830994-2.83289 1.81604-3.8867 2.96973c-1.42781 1.55713-2.42366 3.42108-2.91788 5.44995c-0.486999 2.04144-0.461075 4.16516 0.0824585 6.19067c0.556305 2.01825 1.6037 3.87781 3.05447 5.3844c1.45091 1.50659 3.2531 2.61444 5.27019 3.23395c1.52271 0.467163 3.1268 0.667236 4.86508 0.603516c1.28412-0.0449829 2.32901-0.196045 4.87094-0.549622c4.36563-0.619141 8.74124-1.2356 13.1167-1.85223c2.6124-0.377624 4.00146-0.576538 5.55927-0.645264c2.03427-0.0923462 3.8468 0.0880737 5.57999 0.568176c4.64548 1.27246 8.4938 4.7074 10.3915 9.25098c1.88586 4.50842 1.65427 9.66443-0.718079 13.901c-0.871246 1.55487-2.00372 2.9657-3.5145 4.3512c-1.14789 1.0647-2.2601 1.91425-4.36288 3.51721c-3.51895 2.67151-7.03055 5.35565-10.5495 8.02716c-2.03705 1.55627-2.86807 2.19159-3.80786 3.07611c-1.28271 1.21069-2.263 2.49078-2.99408 3.87952c-0.965851 1.87201-1.44547 3.92603-1.40173 6.0224c0.0538635 2.099 0.634888 4.1452 1.68536 5.95209c1.66769 2.86841 4.39182 4.93658 7.54895 5.77228c2.08826 0.552734 4.07932 0.502441 5.86163 0.151001c1.0256-0.198914 1.94443-0.479614 2.7482-0.769348c0.957306-0.345337 1.92328-0.763184 3.5246-1.44049c4.06244-1.73645 8.12253-3.46289 12.195-5.19672c2.42084-1.02704 3.71213-1.58331 5.20523-2.05408c1.94879-0.617432 3.73792-0.913574 5.53009-0.898987c4.85547 0.0343628 9.45074 2.38403 12.4384 6.24329c3.00974 3.89716 4.08823 8.95099 2.90582 13.6201c-0.44751 1.73114-1.18747 3.39557-2.27411 5.11786c-0.84848 1.34705-1.67276 2.40112-3.3013 4.51459c-2.70047 3.49756-5.41104 6.99243-8.11163 10.4899c-1.56473 2.03412-2.21024 2.85754-2.88739 3.96124c-0.905365 1.48163-1.53506 2.97211-1.8797 4.51666c-0.459747 2.05933-0.388519 4.17364 0.203064 6.17981c0.588837 2.01617 1.67682 3.84369 3.16815 5.3183c1.48135 1.47192 3.3215 2.55774 5.32904 3.13184c2.01501 0.586914 4.12756 0.643555 6.18716 0.173096c1.52405-0.344971 3.01685-0.976196 4.51367-1.9057c1.09003-0.684387 1.92368-1.32971 3.936-2.91388c3.47955-2.72473 6.9592-5.4494 10.4361-8.16412c2.07809-1.63092 3.18308-2.4931 4.49838-3.34235c1.72491-1.10431 3.37463-1.84369 5.10809-2.29358c4.72006-1.23102 9.76389-0.131165 13.6365 2.80774c3.91232 2.99207 6.25818 7.57947 6.31961 12.3961c0.0273132 1.83545-0.265595 3.62885-0.856018 5.53601c-0.477173 1.52014-1.00824 2.75873-2.03494 5.22394c-1.69815 4.07288-3.40906 8.15314-5.10721 12.2261c-0.450806 1.0567-0.948517 2.25061-1.23218 2.99878c-0.262939 0.710877-0.497955 1.39703-0.688354 2.11646c-0.394074 1.48871-0.55661 2.91034-0.49823 4.30499c0.0938721 2.10962 0.712708 4.13373 1.79858 5.92865c1.08844 1.78485 2.61981 3.27002 4.43051 4.3053c1.81808 1.04785 3.87103 1.61267 5.96622 1.65411c2.09784 0.0313721 4.15021-0.451721 6.01651-1.44379c1.38864-0.722961 2.65848-1.72327 3.86438-3.00775c0.880493-0.942932 1.50876-1.78162 3.05627-3.83099c2.65576-3.53076 5.31174-7.06146 7.96759-10.5922c1.58325-2.10406 2.42606-3.22809 3.47992-4.38177c1.37457-1.51782 2.77924-2.66418 4.33813-3.54517c4.2045-2.3938 9.3576-2.67621 13.8896-0.813721c4.56186 1.87036 8.01614 5.70343 9.32364 10.3367c0.485077 1.72137 0.680908 3.52661 0.600037 5.5686c-0.0696716 1.59595-0.250946 2.92712-0.608185 5.56952c-0.591919 4.3764-1.18634 8.76288-1.77823 13.1393c-0.34082 2.53986-0.478027 3.58337-0.51825 4.86639c-0.0493469 1.76166 0.156616 3.36639 0.627319 4.85944c0.634247 2.00684 1.75003 3.80963 3.27197 5.24957c1.50928 1.4472 3.37265 2.48572 5.40091 3.02258c2.01813 0.534241 4.15125 0.553589 6.17889 0.0426025c2.035-0.498413 3.89392-1.50311 5.44049-2.94336c1.14786-1.06464 2.11813-2.34735 2.94946-3.91272c0.609802-1.13226 1.00668-2.10706 1.96704-4.48291c1.65091-4.09607 3.29181-8.19482 4.94272-12.2909c0.991425-2.45312 1.51572-3.74701 2.23679-5.13843c0.940094-1.81458 1.99316-3.28925 3.26657-4.54517c3.42831-3.3797 8.32932-5.01184 13.2191-4.38031c4.85992 0.623535 9.19849 3.4184 11.6707 7.56885c0.918884 1.53687 1.57236 3.22797 2.02612 5.22974c0.347137 1.55658 0.509338 2.88251 0.856384 5.5296c0.561279 4.38232 1.1199 8.7746 1.68118 13.1569c0.323608 2.53394 0.464569 3.57623 0.763245 4.8313c0.399994 1.72028 1.02118 3.21045 1.85776 4.53308c1.13373 1.77551 2.67554 3.22064 4.51697 4.22131c1.83865 1.01056 3.90207 1.53534 6.00061 1.52423c2.08588-0.0038452 4.15131-0.536987 5.98303-1.55957c1.82892-1.01263 3.3681-2.46552 4.49329-4.2525c0.750854-1.18042 1.30304-2.4989 1.69708-3.98761c0.193115-0.72937 0.335571-1.42938 0.448608-2.17993c0.134338-0.830383 0.283874-2.04169 0.422974-3.21301c0.529114-4.38239 1.07098-8.77203 1.60028-13.1543c0.319275-2.62042 0.483887-4.00946 0.825867-5.54401c0.427918-1.93945 1.05328-3.65558 1.98242-5.22717c2.43903-4.16547 6.74719-6.99152 11.6274-7.65625c4.82214-0.64801 9.74976 0.89154 13.2424 4.29645c1.28387 1.24854 2.35187 2.70734 3.30457 4.52039c0.725403 1.37878 1.25653 2.68469 2.2583 5.12024c1.6759 4.08929 3.35175 8.17865 5.02771 12.268c0.975037 2.37494 1.3703 3.34552 1.98883 4.48218c0.840942 1.54834 1.8161 2.83282 2.96979 3.88654c1.55719 1.42792 3.42114 2.42383 5.45996 2.92065c2.03149 0.484314 4.16516 0.46106 6.18073-0.0852051c2.02826-0.55365 3.87775-1.60358 5.38428-3.05444c1.50665-1.45074 2.6145-3.25305 3.23401-5.27002c0.477173-1.52014 0.667175-3.12708 0.603394-4.86523c-0.0447998-1.28412-0.185974-2.32648-0.5495-4.87097c-0.61908-4.36554-1.23566-8.74109-1.85223-13.1166c-0.367615-2.6098-0.566589-3.9989-0.645325-5.55927c-0.0897217-2.04437 0.0881348-3.84692 0.565674-5.57007c1.28491-4.65271 4.70984-8.50378 9.25354-10.4016c4.50836-1.88574 9.66443-1.65417 13.9009 0.71814c1.55493 0.871338 2.97565 2.00641 4.36127 3.51715c1.05469 1.1452 1.90417 2.25745 3.5072 4.36029c2.67145 3.51898 5.35559 7.03058 8.0271 10.5495c1.55634 2.03705 2.19165 2.8681 3.07611 3.8078c1.21075 1.28271 2.49084 2.263 3.87964 2.99414c1.87189 0.965942 3.92596 1.4455 6.02234 1.40161c2.099-0.0537109 4.14514-0.634766 5.96204-1.68268c2.85571-1.66028 4.92651-4.39435 5.76221-7.55157c0.552734-2.08813 0.502564-4.07935 0.161133-5.85901c-0.199036-1.02551-0.489685-1.94702-0.779419-2.75073c-0.345337-0.957458-0.763061-1.92334-1.44049-3.52454c-1.73639-4.06268-3.46283-8.12262-5.18665-12.1926c-1.03699-2.42334-1.59338-3.7146-2.06421-5.20776c-0.61731-1.94879-0.913513-3.73779-0.898865-5.53009c0.0317993-4.8454 2.38403-9.45081 6.24329-12.4385c3.89716-3.00964 8.95099-4.08813 13.6174-2.89569c1.73376 0.4375 3.39819 1.17743 5.12054 2.2641c1.34711 0.84845 2.40112 1.67261 4.51459 3.30121c3.49756 2.70056 6.99243 5.41107 10.4899 8.11163c2.03418 1.56476 2.85748 2.21039 3.9613 2.88745c1.48163 0.905335 2.97211 1.5351 4.51666 1.87982c2.05933 0.459534 4.17371 0.388489 6.18988-0.2005c2.0061-0.591553 3.83356-1.67938 5.30817-3.17078c1.48193-1.4787 2.5578-3.32147 3.1319-5.32916c0.586853-2.01495 0.643494-4.12756 0.173035-6.18719c-0.34491-1.52393-0.976135-3.01666-1.9082-4.50366c-0.681946-1.09991-1.32721-1.93359-2.91138-3.94592c-2.72473-3.47955-5.43933-6.95648-8.16406-10.436c-1.63092-2.07819-2.49304-3.18311-3.34247-4.49841c-1.10425-1.72498-1.84363-3.37463-2.29352-5.10815c-1.23108-4.71991-0.131165-9.76373 2.81775-13.6339c2.98218-3.91473 7.57953-6.258 12.3862-6.32208c1.83539-0.0273438 3.63885 0.268188 5.53589 0.855896c1.5202 0.477234 2.75885 1.00824 5.22412 2.03497c4.07288 1.69824 8.15308 3.409 12.226 5.10724c1.0567 0.450745 2.25067 0.948547 3.00885 1.2348c0.700806 0.260315 1.38708 0.495422 2.10638 0.685852c1.48871 0.394043 2.92041 0.559143 4.31494 0.50061c2.10968-0.093689 4.12378-0.71521 5.9187-1.80103c1.78479-1.0885 3.26996-2.61981 4.31525-4.42792c1.0379-1.8208 1.60272-3.87366 1.64417-5.96887s-0.451599-4.15015-1.43384-6.01386c-0.73291-1.39142-1.72321-2.65851-3.0177-3.86713c-0.942871-0.880371-1.78162-1.50867-3.83093-3.05609c-3.53076-2.65594-7.06146-5.31177-10.5823-7.96503c-2.11389-1.58594-3.23798-2.42865-4.39441-3.47247c-1.51514-1.3847-2.66138-2.78931-3.54248-4.34821c-2.38373-4.2019-2.66614-9.35504-0.803711-13.887c1.87036-4.56183 5.69342-8.0188 10.3367-9.32355c1.71143-0.487854 3.5166-0.683594 5.56866-0.600098c1.586 0.0669556 2.91705 0.248291 5.55939 0.605591c4.38647 0.594421 8.76288 1.18622 13.1395 1.77808c2.53973 0.34082 3.58325 0.478027 4.86633 0.518372c1.77161 0.0519409 3.36633-0.156738 4.85944-0.627502c2.01672-0.63147 3.80957-1.74988 5.25958-3.26917c1.43726-1.51196 2.47571-3.37531 3.00995-5.39349C772.254 578.952 772.273 576.819 771.772 574.794zM604.582 671.538c-42.2527 24.5659-92.5347 31.3369-139.783 18.8304c-47.2483-12.5067-87.5955-43.2672-112.161-85.52s-31.3368-92.5347-18.8302-139.783c12.5066-47.2481 43.267-87.5955 85.5198-112.161c42.2529-24.5659 92.5347-31.3369 139.783-18.8303c47.248 12.5065 87.5953 43.2671 112.161 85.5199c24.5659 42.2529 31.337 92.5348 18.8304 139.783C677.596 606.625 646.835 646.972 604.582 671.538z" fill="#FFFFFF" opacity="0.6" style="opacity:0.6;fill:#FFFFFF;enable-background:new    ;"/>
 </g>
</svg>
