<?xml version="1.0" encoding="UTF-8"?>
<!--Generator: Apple Native CoreSVG 341-->
<!DOCTYPE svg
PUBLIC "-//W3C//DTD SVG 1.1//EN"
       "http://www.w3.org/Graphics/SVG/1.1/DTD/svg11.dtd">
<svg version="1.1" xmlns="http://www.w3.org/2000/svg" xmlns:xlink="http://www.w3.org/1999/xlink" viewBox="0 0 1024 1024">
 <g id="top_cog">
  <path d="M372.497 697.979c-3.04633 5.33264-5.40729 9.49738-7.52438 12.8877c-2.80219 4.50671-5.7399 8.58069-9.34738 12.2651c-3.65872 3.72583-8.12085 7.13477-13.6148 9.60895c-5.41177 2.43256-11.2394 3.68054-17.1329 3.70142c-6.20212 0.0220337-12.337-1.32794-18.1166-3.99933c-3.04968-1.41248-6.02832-3.18616-8.98822-5.38275c-4.66119-3.44885-8.88272-7.6109-12.9614-12.1035c-3.55222-3.91687-7.44635-8.58539-10.8868-12.9255c-42.608-53.7374-65.9146-120.301-66.158-188.958c-0.243317-68.6463 22.5907-135.384 64.8167-189.422c3.40958-4.37473 7.2706-9.0502 10.795-12.9921c4.04672-4.52139 8.23862-8.72354 12.8752-12.2053c2.94431-2.20721 5.91025-4.01227 8.94983-5.44638c5.76056-2.71222 11.8857-4.10565 18.0878-4.12762c5.89352-0.0209045 11.7299 1.1857 17.1588 3.59012c5.51135 2.43515 9.99756 5.81244 13.6826 9.51224c3.63348 3.64844 6.59998 7.70145 9.43405 12.1882c2.14108 3.37518 4.53152 7.52313 7.61557 12.834c19.1245 32.9563 38.2491 65.9023 57.3838 98.8481c5.24677 9.03674 9.3447 16.0561 12.6789 22.3252c3.63437 6.83533 6.59869 13.2192 9.04926 19.739c2.37784 6.33438 4.50122 13.433 5.98959 21.2762c1.44626 7.58569 2.18314 15.277 2.21048 22.9915c0.0274048 7.72479-0.654999 15.4108-2.04742 23.0066c-1.43271 7.86395-3.50577 14.9671-5.83862 21.3182c-2.40424 6.54736-5.32327 12.9418-8.90909 19.8027c-1.69598 3.25476-3.47424 6.46857-5.26285 9.66187c-1.9726 3.49292-3.93536 6.93433-7.25745 12.7526C410.278 631.818 391.387 664.898 372.497 697.979zM805.013 593.063c-0.753479 5.05627-2.10364 10.0837-3.67017 15.0089c-1.6073 5.03876-3.68524 10.7598-5.71375 15.9135c-25.1072 63.8682-70.9452 117.393-130.119 151.926c-59.0096 34.4399-128.039 48.1026-196.009 38.4218c-5.48502-0.774658-11.4542-1.78485-16.6215-2.88043c-5.92889-1.2475-11.653-2.79492-16.9788-5.07593c-4.71793-2.02539-9.25305-4.69086-13.3391-8.34802c-4.16861-3.71875-7.49612-8.14172-9.91019-13.0838c-2.79758-5.745-4.24942-12.0312-4.27219-18.4564c-0.0149231-4.20795 0.587677-8.26331 1.62308-12.1346c1.34021-4.97589 3.36047-9.58289 5.82245-14.2946c1.83884-3.54407 4.23099-7.68829 7.27722-13.0209c18.8904-33.091 37.7807-66.1717 56.6712-99.2524c5.1828-9.07367 9.18948-16.1423 12.943-22.1788c4.08054-6.57397 8.1127-12.3328 12.5266-17.7219c4.28088-5.23383 9.34274-10.6251 15.3722-15.8446c5.83478-5.04333 12.1033-9.53131 18.7546-13.4122c6.66138-3.88092 13.6336-7.13379 20.8964-9.7276c7.50934-2.68744 14.6823-4.43524 21.333-5.58307c6.85632-1.17938 13.838-1.85388 21.5508-2.17004c3.66107-0.147034 7.32269-0.221924 10.9842-0.255432c4.00073-0.045166 7.95062-0.0488281 14.6463-0.0725708l114.055-0.404297c6.12994-0.0217285 10.9126-0.0593262 14.8936 0.0812378c5.29773 0.1875 10.2881 0.706116 15.2711 1.99829c4.6427 1.20056 9.35022 3.1228 13.8351 6.12878c4.50549 3.02655 8.35547 6.84949 11.3746 11.2839c4.11511 6.00854 6.57715 12.9409 7.26184 20.3539C805.878 584.654 805.636 588.935 805.013 593.063zM484.803 512.092c-0.0259094-7.3111 2.84445-14.3386 7.98599-19.5218c5.14142-5.19217 12.1205-8.12006 19.4204-8.14594c7.29126-0.0258484 14.291 2.85248 19.4691 8.00809c5.17804 5.14664 8.09827 12.1537 8.12415 19.4647c0.0259399 7.31113-2.84448 14.3386-7.9859 19.5308c-5.14142 5.18323-12.1205 8.12-19.4118 8.14587c-7.30002 0.0258789-14.2997-2.86139-19.4777-8.00806C487.749 526.41 484.828 519.403 484.803 512.092zM804.98 441.649c-0.63208 7.42795-3.04498 14.3673-7.11731 20.4151c-2.98767 4.45578-6.81042 8.306-11.2944 11.3541c-4.46344 3.03769-9.15717 4.99323-13.7912 6.237c-4.97375 1.32739-9.96027 1.87109-15.2565 2.09613c-3.97998 0.168854-8.76276 0.175446-14.8926 0.197174l-114.055 0.404297c-10.4293 0.0369568-18.5446 0.0863953-25.6322-0.156677c-7.7149-0.261414-14.701-0.876099-21.5656-2.00687c-6.65875-1.11087-13.8439-2.8078-21.372-5.43173c-7.28107-2.54227-14.2762-5.74561-20.965-9.58951c-6.67871-3.83356-12.9788-8.26672-18.8492-13.279c-6.06622-5.16617-11.1662-10.5215-15.4841-15.7352c-4.452-5.35757-8.52493-11.0878-12.6519-17.6223c-1.95508-3.10773-3.84839-6.25699-5.71112-9.41663c-2.03839-3.44788-4.02536-6.87521-7.38879-12.6801c-19.1245-32.946-38.2489-65.8919-57.3734-98.8379c-3.08395-5.31088-5.50546-9.44839-7.36938-12.9793c-2.4953-4.69415-4.54816-9.27643-5.92364-14.253c-1.06281-3.86377-1.69409-7.90451-1.70905-12.1227c-0.0227966-6.42529 1.38449-12.7113 4.14127-18.476c2.37894-4.96928 5.67502-9.4158 9.81717-13.164c4.06-3.68599 8.57614-6.37326 13.2796-8.43199c5.30942-2.32906 11.0225-3.90666 16.9424-5.20653c5.14908-1.1321 11.1316-2.17436 16.6007-2.99823c67.8999-10.1623 137.024 3.01064 196.277 37.0314c59.4171 34.1129 105.633 87.3116 131.193 151c2.06506 5.15979 4.18347 10.8454 5.82642 15.8726c1.60144 4.91394 2.98724 9.9317 3.77655 14.9929C805.083 432.975 805.356 437.254 804.98 441.649zM236.571 259.859l-13.0053-9.98341c-4.705-3.36472-7.43523-5.55772-11.6611-6.34782c-5.22559-0.962952-10.5721 0.862076-14.0563 5.0166c-3.48915 4.15656-4.36063 9.74246-2.50644 14.7237c1.51067 4.02628 4.14424 6.3345 8.27434 10.3845l12.0889 11.0758c4.4538 4.25055 7.92401 7.41336 9.75838 11.5493c2.05592 4.63464 1.63486 9.96851-1.34229 14.2467c-2.98605 4.26974-7.84966 6.48349-12.9082 6.15393c-4.51884-0.308929-8.71368-2.43436-14.2414-5.16107l-14.5414-7.57333c-5.2178-2.49655-8.28737-4.18216-12.5863-4.22641c-5.31342-0.0408936-10.2618 2.68485-12.9716 7.38129c-2.71434 4.69931-2.60257 10.3517 0.0884399 14.9352c2.18687 3.70276 5.18127 5.51862 9.9519 8.78986l13.8286 8.80826c5.12425 3.41257 9.09096 5.92468 11.6157 9.67929c2.8295 4.20721 3.34106 9.53317 1.15207 14.2634c-2.19923 4.72342-6.60452 7.74808-11.6435 8.30197c-4.50383 0.480469-9.00403-0.884216-14.9213-2.60959l-15.6355-4.93329c-5.57204-1.55258-8.88766-2.67953-13.1289-1.97665c-5.23981 0.882385-9.63974 4.42596-11.4929 9.52161c-1.85709 5.09924-0.765518 10.6464 2.68051 14.693c2.79662 3.26675 6.06084 4.53506 11.327 6.92819l15.148 6.27319c5.63898 2.47095 9.98166 4.2561 13.12 7.51526c3.51707 3.65198 4.94569 8.80817 3.61133 13.8466c-1.34563 5.03354-5.15878 8.77722-10.025 10.1977c-4.35199 1.25525-9.02078 0.692719-15.1478 0.0210571l-16.2547-2.14319c-5.757-0.561401-9.21796-1.09549-13.2727 0.333221c-5.00697 1.77887-8.7247 6.03268-9.6648 11.3727c-0.94339 5.34427 1.09486 10.6175 5.19124 14.0043c3.32141 2.73151 6.75629 3.4137 12.358 4.85599l16.0072 3.54739c5.98239 1.45419 10.5691 2.45813 14.2257 5.1228c4.09781 2.98572 6.40012 7.81552 5.96095 13.0091c-0.451111 5.19073-3.55623 9.5397-8.10185 11.7836c-4.0679 1.99188-8.76344 2.24866-14.914 2.65115l-16.3799 0.711914c-5.76703 0.446808-9.26815 0.52182-13.0132 2.6329c-4.62202 2.62128-7.54462 7.45602-7.54317 12.8782c-0.0010605 5.42688 2.92191 10.2661 7.54414 12.8901c3.74527 2.11328 7.24641 2.18866 13.0135 2.63635l16.38 0.713928c6.14401 0.393249 10.8354 0.58551 14.8991 2.57471c4.55402 2.22882 7.66 6.58551 8.12936 11.7764c0.457092 5.19025-1.84567 10.0123-5.9326 13.0115c-3.66023 2.66803-8.23985 3.73621-14.2271 5.20062l-16.0074 3.54547c-5.60182 1.44147-9.03673 2.12335-12.3583 4.85266c-4.0966 3.38409-6.13524 8.65289-5.19225 13.9924c0.941345 5.3446 4.66024 9.60272 9.66791 11.3842c4.05534 1.43079 7.51638 0.897034 13.2736 0.336426l16.2552-2.1413c6.11897-0.679627 10.7724-1.30499 15.1199-0.0516357c4.87187 1.40411 8.68721 5.15521 10.0509 10.1858c1.35143 5.03198-0.0789948 10.1807-3.58302 13.844c-3.14131 3.26306-7.46587 5.11035-13.1078 7.59216l-15.1486 6.27124c-5.26642 2.39227-8.53075 3.66022-11.3279 6.92493c-3.44675 4.04401-4.53951 9.58673-2.68368 14.6814c1.85511 5.09998 6.25692 8.64764 11.4979 9.53247c4.24217 0.704895 7.55795-0.421753 13.1304-1.97351l15.6364-4.93146c5.908-1.73181 10.3822-3.1557 14.8812-2.67633c5.04167 0.536865 9.45041 3.56842 11.6669 8.28583c2.20468 4.72089 1.69003 10.0397-1.12465 14.2559c-2.52698 3.75897-6.46506 6.32904-11.5903 9.75287l-13.8294 8.80652c-4.77098 3.27051-7.76553 5.086-9.95331 8.78687c-2.69212 4.58112-2.80579 10.2294-0.0934448 14.9244c2.71254 4.70038 7.66353 7.42975 12.9785 7.39105c4.30013-0.0425415 7.3699-1.72784 12.5882-4.22369l14.5425-7.57178c5.5175-2.73145 9.67644-4.91064 14.1904-5.21979c5.0583-0.346802 9.9265 1.87311 12.9285 6.13397c2.99097 4.2663 3.40778 9.59369 1.36798 14.2345c-1.83583 4.14069-5.26779 7.35565-9.72066 11.6174l-12.0901 11.0742c-4.1306 4.04926-6.7644 6.35718-8.27631 10.3817c-1.85574 4.97894-0.986862 10.5612 2.49953 14.7139c3.48753 4.15796 8.83725 5.98614 14.0647 5.02509c4.22743-0.788513 6.95792-2.98132 11.6635-6.3454l13.0067-9.98199c4.95938-3.64801 8.67671-6.5163 13.0684-7.60461c4.92123-1.21985 10.1009 0.121033 13.7972 3.79584c3.68634 3.68213 5.02191 8.8562 3.81897 13.7808c-1.08893 4.39655-3.91049 8.15857-7.55566 13.1288l-9.98337 13.0054c-3.36469 4.70502-5.55769 7.43524-6.34778 11.6611c-0.962936 5.22565 0.862106 10.5722 5.01665 14.0563c4.15657 3.48914 9.74251 4.3606 14.7237 2.50641c4.02628-1.51068 6.33447-4.14429 10.3844-8.27441l11.0757-12.089c4.25055-4.4538 7.41333-7.92401 11.5493-9.75836c4.63464-2.05597 9.96851-1.63495 14.2467 1.34222c4.26974 2.98602 6.48352 7.84961 6.15399 12.9082c-0.308929 4.51886-2.43433 8.71368-5.16101 14.2415l-7.57339 14.5414c-2.49658 5.21777-4.18216 8.28735-4.22644 12.5862c-0.0409241 5.31342 2.68481 10.2618 7.38126 12.9716c4.69928 2.71436 10.3517 2.60266 14.9352-0.0883789c3.70276-2.18683 5.51862-5.18121 8.78986-9.95184l8.80832-13.8286c3.4126-5.12421 5.92471-9.09094 9.67932-11.6156c4.20724-2.82953 9.53317-3.34106 14.2634-1.15204c4.72342 2.19922 7.74808 6.60455 8.30197 11.6435c0.480438 4.50385-0.884277 9.00403-2.60968 14.9213l-4.9332 15.6356c-1.55255 5.57202-2.6795 8.8877-1.97662 13.129c0.882416 5.23975 4.42603 9.63971 9.52167 11.4928c5.09924 1.85706 10.6464 0.765503 14.693-2.68054c3.26675-2.79663 4.53503-6.06091 6.92816-11.3271l6.27313-15.1481c2.47092-5.63898 4.25607-9.98163 7.5152-13.12c3.65198-3.51709 8.80817-4.94568 13.8466-3.61139c5.03354 1.34564 8.77725 5.15875 10.1978 10.025c1.25522 4.35199 0.692719 9.02075 0.0210876 15.1478l-2.14322 16.2546c-0.561432 5.75702-1.09552 9.21796 0.333191 13.2728c1.77884 5.00696 6.03262 8.72467 11.3727 9.66479c5.34427 0.94342 10.6176-1.09479 14.0043-5.19116c2.73151-3.32141 3.4137-6.75629 4.85602-12.358l3.54745-16.0073c1.45419-5.98236 2.45816-10.569 5.12283-14.2256c2.98575-4.09778 7.81555-6.40009 13.0092-5.96088c5.19073 0.451111 9.53967 3.55621 11.7836 8.10187c1.99188 4.06793 2.24863 8.76343 2.65109 14.914l0.711975 16.3799c0.446838 5.76703 0.521851 9.26813 2.63297 13.0132c2.62131 4.62201 7.45605 7.54462 12.8782 7.54315c5.42694 0.0010376 10.2661-2.92194 12.8901-7.54419c2.11328-3.7453 2.1886-7.2464 2.63629-13.0135l0.713867-16.38c0.393249-6.14404 0.585449-10.8354 2.57471-14.8992c2.22876-4.55402 6.58539-7.66003 11.7764-8.12939c5.19025-0.457092 10.0123 1.84564 13.0115 5.93256c2.66803 3.66022 3.73627 8.23987 5.20068 14.2271l3.54541 16.0074c1.44147 5.60181 2.12329 9.03668 4.85266 12.3583c3.38409 4.09662 8.65289 6.13531 13.9924 5.19232c5.34467-0.941345 9.60278-4.66022 11.3842-9.66785c1.43085-4.05536 0.897095-7.51642 0.336548-13.2736l-2.1413-16.2552c-0.679627-6.11896-1.30493-10.7724-0.0515747-15.1199c1.40411-4.87183 5.15521-8.68719 10.1859-10.0508c5.03198-1.35144 10.1807 0.0789795 13.8439 3.58307c3.26306 3.1413 5.11035 7.46588 7.59216 13.1078l6.27124 15.1485c2.39233 5.26642 3.66028 8.53076 6.92499 11.3279c4.04401 3.44672 9.58679 4.53943 14.6815 2.68359c5.09991-1.85516 8.64758-6.25696 9.53241-11.4979c0.704834-4.24219-0.421814-7.55798-1.97357-13.1304l-4.93152-15.6364c-1.73181-5.90796-3.15576-10.3821-2.67639-14.8812c0.536865-5.04169 3.56842-9.45044 8.28577-11.6669c4.72089-2.20465 10.0397-1.69006 14.2559 1.12463c3.75897 2.52698 6.3291 6.46503 9.75299 11.5903l8.80646 13.8294c3.27045 4.771 5.086 7.76556 8.7868 9.95331c4.58105 2.69214 10.2294 2.80585 14.9244 0.0935059c4.70038-2.71252 7.42975-7.66351 7.39105-12.9785c-0.0424805-4.30011-1.72778-7.36993-4.22363-12.5882l-7.57172-14.5425c-2.73145-5.51752-4.91064-9.67645-5.21979-14.1904c-0.346802-5.05829 1.87317-9.92645 6.13403-12.9284c4.2663-2.99097 9.59375-3.40778 14.2346-1.36798c4.14062 1.83588 7.35559 5.26782 11.6174 9.7207l11.0742 12.0901c4.04926 4.13055 6.35718 6.76434 10.3817 8.27625c4.979 1.85577 10.5613 0.986877 14.7139-2.49957c4.1579-3.48755 5.98608-8.83728 5.02502-14.0648c-0.788574-4.22742-2.98132-6.95789-6.3454-11.6635l-9.98206-13.0067c-3.64801-4.95935-6.5163-8.6767-7.60461-13.0684c-1.21991-4.9212 0.120972-10.101 3.79578-13.7972c3.68207-3.6864 8.8562-5.02197 13.7807-3.81903c4.39661 1.08893 8.15863 3.91046 13.1289 7.55566l13.0054 9.9834c4.70496 3.36469 7.43518 5.55774 11.6611 6.34784c5.22565 0.962952 10.5722-0.862061 14.0563-5.0166c3.4892-4.15656 4.36066-9.74249 2.50647-14.7237c-1.51068-4.02625-4.14423-6.33447-8.27435-10.3845l-12.0889-11.0758c-4.4538-4.25055-7.92401-7.41333-9.75836-11.5493c-2.05591-4.63464-1.63489-9.96851 1.34229-14.2467c2.98602-4.26978 7.84967-6.48352 12.9083-6.15393c4.5188 0.308899 8.71368 2.43433 14.2414 5.16107l14.5414 7.57336c5.21783 2.49652 8.28741 4.18213 12.5863 4.22638c5.31342 0.0408936 10.2618-2.68481 12.9716-7.38129c2.71436-4.69928 2.6026-10.3517-0.0884399-14.9352c-2.18689-3.70282-5.18127-5.51862-9.9519-8.78986l-13.8286-8.80829c-5.12427-3.4126-9.091-5.92468-11.6157-9.67932c-2.82947-4.20721-3.34106-9.53314-1.15204-14.2634c2.19922-4.72339 6.60455-7.74805 11.6435-8.30194c4.50385-0.480469 9.00403 0.884216 14.9213 2.60962l15.6355 4.93323c5.57208 1.55261 8.8877 2.67957 13.129 1.97668c5.23981-0.882385 9.63971-4.42596 11.4929-9.52161c1.85712-5.09924 0.765503-10.6464-2.68048-14.693c-2.79663-3.26672-6.06085-4.53503-11.327-6.92816l-15.1481-6.27319c-5.63898-2.47095-9.98163-4.2561-13.1199-7.51526c-3.51709-3.65198-4.94574-8.80823-3.61133-13.8467c1.34564-5.03351 5.15875-8.77722 10.025-10.1977c4.35205-1.25519 9.02081-0.692688 15.1478-0.0209961l16.2546 2.14319c5.75702 0.561401 9.21796 1.09546 13.2728-0.333252c5.00696-1.77887 8.72467-6.03265 9.66479-11.3727c0.943359-5.3443-1.09485-10.6176-5.19122-14.0043c-3.32141-2.73151-6.75629-3.4137-12.3581-4.85602l-16.0072-3.54742c-5.98236-1.45416-10.5691-2.45807-14.2256-5.12274c-4.09784-2.98578-6.40015-7.81555-5.961-13.0092c0.451111-5.19073 3.55627-9.53973 8.10187-11.7836c4.06793-1.99188 8.76349-2.24866 14.914-2.65112l16.3799-0.711914c5.76703-0.446838 9.26813-0.521851 13.0132-2.63293c4.62201-2.62128 7.54462-7.45599 7.54315-12.8782c0.0010376-5.42688-2.92188-10.2661-7.54413-12.8901c-3.74524-2.11328-7.2464-2.18863-13.0135-2.63632l-16.3801-0.713928c-6.14404-0.393311-10.8354-0.585541-14.8991-2.57477c-4.55402-2.22882-7.66003-6.58545-8.12939-11.7764c-0.457092-5.19022 1.8457-10.0123 5.93262-13.0114c3.66022-2.668 8.23987-3.73621 14.2271-5.20062l16.0074-3.54547c5.60181-1.44147 9.03668-2.12329 12.3583-4.85266c4.09662-3.38409 6.13525-8.65289 5.19226-13.9924c-0.941345-5.34464-4.66022-9.60275-9.66791-11.3842c-4.0553-1.43079-7.51636-0.897034-13.2736-0.336456l-16.2552 2.14133c-6.11896 0.679596-10.7724 1.30496-15.1199 0.0516357c-4.87183-1.40414-8.68719-5.15524-10.0508-10.1859c-1.35144-5.03198 0.0790405-10.1807 3.58307-13.844c3.1413-3.26306 7.46582-5.11032 13.1078-7.59216l15.1486-6.27124c5.26642-2.3923 8.53076-3.66022 11.3279-6.92493c3.44672-4.04401 4.53949-9.58676 2.68365-14.6814c-1.8551-5.09998-6.2569-8.64764-11.4979-9.53247c-4.24219-0.704865-7.55798 0.421783-13.1304 1.97357l-15.6364 4.93143c-5.90796 1.73181-10.3821 3.15573-14.8812 2.67633c-5.04169-0.536835-9.45044-3.56842-11.6669-8.2858c-2.20471-4.72089-1.69006-10.0397 1.12463-14.2558c2.52698-3.75897 6.46503-6.3291 11.5903-9.75293l13.8294-8.80655c4.771-3.27045 7.7655-5.086 9.95331-8.7868c2.69214-4.58112 2.80579-10.2294 0.0934448-14.9244c-2.71259-4.70035-7.66357-7.42975-12.9785-7.39102c-4.30011 0.042511-7.36987 1.72781-12.5882 4.22366l-14.5425 7.57181c-5.51746 2.73145-9.67639 4.91064-14.1903 5.21982c-5.05835 0.346802-9.92651-1.87314-12.9285-6.13397c-2.99097-4.2663-3.40778-9.59372-1.36798-14.2345c1.83588-4.14069 5.26782-7.35562 9.72064-11.6174l12.0901-11.0742c4.13055-4.04922 6.76434-6.35718 8.27631-10.3817c1.85571-4.97897 0.986816-10.5612-2.49957-14.7139c-3.48749-4.15791-8.83722-5.98613-14.0647-5.02509c-4.22748 0.788559-6.95795 2.98131-11.6636 6.34538l-13.0067 9.98201c-4.95941 3.64801-8.67676 6.5163-13.0684 7.60458c-4.9212 1.21991-10.101-0.120972-13.7972-3.79581c-3.68634-3.68213-5.02191-8.85623-3.81897-13.7807c1.08893-4.39656 3.91052-8.15858 7.55566-13.1289l9.9834-13.0054c3.36469-4.70502 5.55768-7.43524 6.34778-11.6611c0.962952-5.2256-0.862122-10.5721-5.01666-14.0563c-4.15656-3.48914-9.74249-4.3606-14.7237-2.50639c-4.02625 1.51068-6.33447 4.14427-10.3844 8.27438l-11.0757 12.089c-4.25055 4.4538-7.41333 7.92403-11.5493 9.75841c-4.63464 2.05594-9.96851 1.63489-14.2467-1.34224c-4.26978-2.98604-6.48352-7.84962-6.15399-12.9082c0.308899-4.51884 2.43433-8.7137 5.16101-14.2415l7.57343-14.5414c2.49652-5.21779 4.18213-8.28735 4.22644-12.5862c0.0408936-5.31343-2.68481-10.2618-7.38129-12.9717c-4.69928-2.71436-10.3516-2.60262-14.9352 0.0883789c-3.70282 2.18686-5.51862 5.18126-8.78992 9.95187l-8.80829 13.8286c-3.4126 5.12424-5.92474 9.09094-9.67932 11.6156c-4.20721 2.82948-9.5332 3.34103-14.2634 1.15202c-4.72339-2.19925-7.74811-6.60455-8.30194-11.6435c-0.480469-4.50385 0.884216-9.00403 2.60962-14.9213l4.93323-15.6356c1.55255-5.57205 2.6795-8.88768 1.97662-13.129c-0.882385-5.23981-4.42603-9.63971-9.52167-11.4928c-5.09924-1.85708-10.6463-0.765488-14.6929 2.68056c-3.26678 2.79662-4.53503 6.06085-6.92816 11.327l-6.27313 15.1481c-2.47095 5.63898-4.2561 9.98166-7.51526 13.12c-3.65192 3.51709-8.80817 4.94572-13.8466 3.61137c-5.03351-1.34561-8.77722-5.15875-10.1977-10.025c-1.25525-4.35199-0.692749-9.0208-0.0211182-15.1478l2.14325-16.2547c0.561401-5.757 1.09552-9.21796-0.333191-13.2727c-1.77887-5.00697-6.03265-8.72472-11.3727-9.66484c-5.34424-0.943405-10.6175 1.09483-14.0043 5.1912c-2.73151 3.3214-3.4137 6.75627-4.85602 12.358l-3.54749 16.0072c-1.45416 5.98239-2.45813 10.5691-5.1228 14.2257c-2.98578 4.09781-7.81555 6.40009-13.0092 5.96091c-5.19073-0.451126-9.53973-3.55626-11.7836-8.1019c-1.99188-4.0679-2.2486-8.76344-2.65106-14.914l-0.711975-16.3799c-0.446838-5.76702-0.521851-9.26814-2.633-13.0132c-2.62128-4.62201-7.45605-7.54459-12.8782-7.54313c-5.42688-0.0010376-10.2661 2.92194-12.8901 7.54419c-2.11325 3.74527-2.1886 7.24642-2.63626 13.0135l-0.713898 16.38c-0.393249 6.14401-0.585449 10.8354-2.57468 14.8991c-2.22882 4.55402-6.58542 7.66002-11.7764 8.12941c-5.19022 0.457092-10.0123-1.84566-13.0115-5.93257c-2.668-3.66022-3.73624-8.23984-5.20065-14.2271l3.05e-05 0.0002899l-3.54544-16.0074c-1.44144-5.60183-2.12329-9.03674-4.85263-12.3583c-3.38406-4.09661-8.65286-6.13526-13.9924-5.19229c-5.3446 0.94133-9.60275 4.66022-11.3842 9.66788c-1.43082 4.05533-0.897064 7.51638-0.336487 13.2736l2.14127 16.2552c0.679596 6.11897 1.30493 10.7724 0.0516052 15.1199c-1.40417 4.87186-5.15527 8.68719-10.1859 10.0508c-5.03198 1.35141-10.1807-0.0790253-13.844-3.58307c-3.26306-3.14131-5.11029-7.46587-7.5921-13.1078l-6.27124-15.1486c-2.3923-5.26642-3.66025-8.53073-6.92493-11.3279c-4.04404-3.44674-9.58679-4.5395-14.6815-2.68365c-5.09995 1.85512-8.64761 6.25693-9.53244 11.4978c-0.704865 4.24219 0.421753 7.55797 1.97354 13.1304l4.93146 15.6364c1.73181 5.90799 3.1557 10.3822 2.67633 14.8812c-0.536835 5.04167-3.56842 9.45041-8.2858 11.6669c-4.72089 2.20468-10.0397 1.69003-14.2559-1.12463c-3.75894-2.52698-6.32907-6.46506-9.7529-11.5903l-8.80652-13.8294c-3.27045-4.771-5.08597-7.76555-8.78677-9.95332c-4.58112-2.69214-10.2294-2.8058-14.9244-0.0934753c-4.70035 2.71252-7.42978 7.66351-7.39108 12.9785c0.042511 4.30013 1.72781 7.3699 4.22366 12.5882l7.57175 14.5425c2.73145 5.51752 4.91064 9.67645 5.21979 14.1904c0.346802 5.0583-1.87317 9.92648-6.13397 12.9285c-4.26633 2.99095-9.59375 3.40775-14.2346 1.36795c-4.14069-1.83585-7.35559-5.26781-11.6174-9.72069l-11.0742-12.0901c-4.04926-4.1306-6.35718-6.7644-10.3817-8.27631c-4.979-1.85574-10.5612-0.986862-14.7139 2.49953c-4.15793 3.48753-5.98613 8.83725-5.0251 14.0647c0.788559 4.22743 2.98132 6.95792 6.3454 11.6635l9.98201 13.0067c3.64801 4.95938 6.5163 8.67671 7.60458 13.0684c1.21991 4.92123-0.120972 10.1009-3.79578 13.7972c-3.68213 3.68637-8.85626 5.02191-13.7808 3.81897C245.304 266.326 241.542 263.504 236.571 259.859" fill="#FFFFFF" opacity="0.9" style="opacity:0.9;fill:#FFFFFF;enable-background:new    ;"/>
 </g>
</svg>
