<?xml version="1.0" encoding="UTF-8"?>
<!--Generator: Apple Native CoreSVG 332-->
<!DOCTYPE svg
PUBLIC "-//W3C//DTD SVG 1.1//EN"
       "http://www.w3.org/Graphics/SVG/1.1/DTD/svg11.dtd">
<svg version="1.1" xmlns="http://www.w3.org/2000/svg" xmlns:xlink="http://www.w3.org/1999/xlink" viewBox="0 0 15.2983 12.2851">
 <defs>
  <style>.hierarchical-0:secondary{-sfsymbols-motion-group:0;-sfsymbols-layer-tags:privacy.handshake;}.hierarchical-1:primary{-sfsymbols-motion-group:0;-sfsymbols-layer-tags:privacy.handshake;-sfsymbols-clear-behind:true;}.monochrome-0{-sfsymbols-motion-group:0;-sfsymbols-layer-tags:privacy.handshake;}.monochrome-1{-sfsymbols-motion-group:0;-sfsymbols-layer-tags:privacy.handshake;-sfsymbols-clear-behind:true;}.multicolor-0:tintColor{opacity:0.5;-sfsymbols-motion-group:0;-sfsymbols-layer-tags:privacy.handshake;}.multicolor-1:tintColor{-sfsymbols-motion-group:0;-sfsymbols-layer-tags:privacy.handshake;-sfsymbols-clear-behind:true;}</style>
 </defs>
 <g id="s" transform="matrix(0.00830078 0 0 0.00830078 -1.66016 12.0527)">
  <path class="monochrome-0 multicolor-0:tintColor hierarchical-0:secondary" d="m1640-942c125 0 236-113 236-257 0-145-111-253-236-253s-236 105-236 251 112 259 236 259Zm299 970c69 0 104-34 104-104v-220c0-352-125-561-329-561-99 0-179 64-227 200-76 216-195 309-370 309v201c174 0 307-39 408-160l-60-33v264c0 70 36 104 104 104Z" opacity="0.5"/>
  <path class="monochrome-1 multicolor-1:tintColor hierarchical-1:primary" d="m603-942c125 0 236-113 236-259s-111-251-236-251-235 108-235 253c0 144 110 257 235 257Zm-299 970h370c69 0 104-34 104-104v-264l-62 29c104 126 236 164 401 164 24 0 55-2 63-3v-64c0-10-9-18-18-18h-27c-10 0-18-8-18-18v-98c-213 0-289-106-361-309-47-136-128-200-226-200-204 0-330 209-330 561v220c0 70 36 104 104 104Z"/>
 </g>
</svg>
